# Blender v2.79 (sub 0) OBJ File: 'tt9.blend'
# www.blender.org
mtllib 10.mtl
o Cylinder.002
v 0.320810 0.020195 -0.320810
v 0.377233 0.000000 -0.252059
v 0.320810 0.000000 -0.320810
v 0.377233 0.020195 -0.252059
v 0.419159 0.000000 -0.173621
v 0.419159 0.020195 -0.173621
v 0.444977 0.000000 -0.088512
v 0.444977 0.020195 -0.088512
v 0.453695 0.000000 0.000000
v 0.453695 0.020195 0.000000
v 0.444977 -0.000000 0.088512
v 0.444977 0.020195 0.088512
v 0.419159 -0.000000 0.173621
v 0.419159 0.020195 0.173621
v 0.377233 -0.000000 0.252059
v 0.377233 0.020195 0.252059
v 0.320810 -0.000000 0.320810
v 0.320810 0.020195 0.320810
v 0.252059 -0.000000 0.377233
v 0.252059 0.020195 0.377233
v 0.231127 0.005389 0.388422
v -0.252059 0.020195 0.377233
v -0.320811 -0.000000 0.320810
v -0.252059 -0.000000 0.377233
v -0.320811 0.020195 0.320810
v -0.377233 -0.000000 0.252059
v -0.377233 0.020195 0.252059
v -0.419159 -0.000000 0.173621
v -0.419159 0.020195 0.173621
v -0.444977 -0.000000 0.088511
v -0.444977 0.020195 0.088511
v -0.453695 0.000000 -0.000001
v -0.453695 0.020195 -0.000001
v -0.444977 0.000000 -0.088512
v -0.444977 0.020195 -0.088512
v -0.419159 0.000000 -0.173622
v -0.419159 0.020195 -0.173622
v -0.377233 0.000000 -0.252060
v -0.377233 0.020195 -0.252060
v -0.320810 0.000000 -0.320811
v -0.320810 0.020195 -0.320811
v -0.303725 0.000000 -0.334832
v 0.380564 0.020195 0.075699
v 0.388020 0.000000 0.000000
v 0.380564 -0.000000 0.075699
v 0.274372 0.020195 0.274371
v 0.322627 -0.000000 0.215572
v 0.274371 -0.000000 0.274372
v 0.322627 0.020195 0.215572
v 0.358484 -0.000000 0.148489
v -0.380564 0.020195 -0.075699
v -0.388020 0.000000 -0.000001
v -0.380564 0.000000 -0.075699
v 0.380564 0.020195 -0.075699
v 0.358484 0.000000 -0.148489
v 0.380564 0.000000 -0.075699
v 0.322627 0.020195 -0.215572
v 0.274371 0.000000 -0.274372
v 0.322627 0.000000 -0.215572
v -0.322627 0.000000 -0.215573
v -0.358483 0.020195 -0.148490
v -0.358484 0.000000 -0.148490
v 0.274372 0.020195 -0.274371
v 0.215572 0.000000 -0.322627
v -0.215572 0.020195 0.322627
v -0.197670 0.016924 0.332196
v -0.215573 -0.000000 0.322627
v 0.215572 0.020195 -0.322627
v 0.192739 0.000000 -0.334832
v 0.215572 0.020195 0.322627
v 0.215572 -0.000000 0.322627
v -0.215572 0.020195 -0.322627
v -0.274371 0.000000 -0.274372
v -0.215572 0.000000 -0.322627
v -0.274372 0.020195 0.274371
v -0.274372 -0.000000 0.274371
v -0.358484 0.020195 0.148489
v -0.322627 -0.000000 0.215572
v -0.358484 -0.000000 0.148489
v 0.358484 0.020195 -0.148489
v -0.388020 0.020195 -0.000001
v -0.380564 -0.000000 0.075699
v 0.358484 0.020195 0.148489
v -0.274371 0.020195 -0.274372
v -0.322627 0.020195 0.215572
v 0.303725 0.010221 -0.334832
v -0.192739 0.020195 -0.334832
v -0.192739 0.000000 -0.334832
v 0.192739 0.020195 -0.334832
v -0.303725 0.020195 -0.334832
v 0.303725 0.000000 -0.334832
v 0.231126 -0.000000 0.388422
v 0.221138 -0.000000 0.371635
v -0.322627 0.020195 -0.215573
v 0.388020 0.020195 0.000000
v -0.231126 0.020195 0.388422
v -0.221138 0.020195 0.371635
v -0.380564 0.020195 0.075699
v 0.303725 0.020195 -0.334832
v -0.303726 0.020195 -0.269261
v -0.303726 0.000000 -0.335479
v -0.303726 0.000000 -0.269261
v -0.303726 0.020195 -0.335479
v 0.303725 0.000000 -0.335479
v 0.303725 0.020195 -0.335479
v 0.303725 0.000000 -0.269261
v 0.303725 0.020195 -0.269261
v 0.205613 0.020195 0.345544
v 0.197670 0.020195 0.332196
v 0.197670 -0.000000 0.332196
v -0.197670 -0.000000 0.332196
v -0.231127 -0.000000 0.388422
v 0.231127 0.020195 0.388422
v -0.197670 0.020195 0.332196
v -0.205613 -0.000000 0.345545
vt 0.969414 0.078255
vt 0.971094 0.069930
vt 0.971085 0.070278
vt 0.970212 0.078229
vt 0.971102 0.069508
vt 0.970966 0.078484
vt 0.971092 0.069007
vt 0.971620 0.079021
vt 0.971048 0.068414
vt 0.972117 0.079841
vt 0.970976 0.067678
vt 0.972400 0.080942
vt 0.970960 0.066615
vt 0.972406 0.082321
vt 0.970921 0.065282
vt 0.972068 0.083975
vt 0.970750 0.063733
vt 0.971314 0.085903
vt 0.970172 0.062145
vt 0.970065 0.088100
vt 0.970414 0.069536
vt 0.959542 0.082035
vt 0.955747 0.069421
vt 0.956886 0.067378
vt 0.959222 0.082245
vt 0.955030 0.071364
vt 0.959129 0.082714
vt 0.954693 0.073171
vt 0.959124 0.083396
vt 0.954693 0.074807
vt 0.959153 0.084265
vt 0.954983 0.076240
vt 0.959193 0.085303
vt 0.955515 0.077434
vt 0.959228 0.086498
vt 0.956234 0.078355
vt 0.959242 0.087837
vt 0.957083 0.078972
vt 0.959206 0.089299
vt 0.958002 0.079251
vt 0.959055 0.090830
vt 0.959989 0.079239
vt 0.965019 0.087695
vt 0.971365 0.068496
vt 0.971582 0.067793
vt 0.968158 0.094876
vt 0.972140 0.065171
vt 0.972327 0.063242
vt 0.966683 0.092269
vt 0.971885 0.066643
vt 0.960297 0.086468
vt 0.964627 0.071459
vt 0.964715 0.073303
vt 0.964724 0.083994
vt 0.971062 0.069548
vt 0.971169 0.069089
vt 0.965432 0.081197
vt 0.970987 0.070175
vt 0.971005 0.069904
vt 0.964018 0.076375
vt 0.960430 0.087851
vt 0.964498 0.074953
vt 0.966056 0.080144
vt 0.971002 0.070371
vt 0.958824 0.082128
vt 0.958954 0.079009
vt 0.958454 0.060538
vt 0.966808 0.079324
vt 0.971443 0.070524
vt 0.970143 0.097695
vt 0.972333 0.060538
vt 0.960325 0.093568
vt 0.963315 0.077534
vt 0.962441 0.078394
vt 0.959292 0.082287
vt 0.960554 0.062836
vt 0.959758 0.083351
vt 0.962193 0.065111
vt 0.963398 0.067329
vt 0.964974 0.082481
vt 0.960135 0.085255
vt 0.964199 0.069457
vt 0.965655 0.089875
vt 0.960516 0.091262
vt 0.959545 0.082694
vt 0.892856 0.011295
vt 0.922935 0.011295
vt 0.922935 0.041373
vt 0.892856 0.011295
vt 0.922935 0.011295
vt 0.922935 0.041373
vt 0.969568 0.074463
vt 0.892856 0.011295
vt 0.922935 0.011295
vt 0.922935 0.041373
vt 0.892856 0.011295
vt 0.922935 0.011295
vt 0.922935 0.041373
vt 0.959527 0.092886
vt 0.960441 0.078934
vt 0.968237 0.078845
vt 0.959785 0.091694
vt 0.892856 0.011295
vt 0.922935 0.011295
vt 0.922935 0.041373
vt 0.892856 0.011295
vt 0.922935 0.011295
vt 0.922935 0.041373
vt 0.892856 0.011295
vt 0.922935 0.011295
vt 0.922935 0.011295
vt 0.922935 0.041373
vt 0.922935 0.011295
vt 0.922935 0.041373
vt 0.892856 0.011295
vt 0.922935 0.011295
vt 0.922935 0.041373
vt 0.892856 0.011295
vt 0.922935 0.011295
vt 0.892856 0.011295
vt 0.922935 0.011295
vt 0.922935 0.041373
vt 0.892856 0.011295
vt 0.922935 0.011295
vt 0.892856 0.011295
vt 0.922935 0.011295
vt 0.922935 0.041373
vt 0.892856 0.011295
vt 0.922935 0.011295
vt 0.922935 0.041373
vt 0.922935 0.011295
vt 0.922935 0.041373
vt 0.892856 0.011295
vt 0.922935 0.011295
vt 0.922935 0.041373
vt 0.892856 0.011295
vt 0.922935 0.011295
vt 0.922935 0.041373
vt 0.892856 0.011295
vt 0.922935 0.011295
vt 0.922935 0.041373
vt 0.892856 0.011295
vt 0.922935 0.011295
vt 0.922935 0.041373
vt 0.892856 0.011295
vt 0.922935 0.011295
vt 0.922935 0.041373
vt 0.892856 0.011295
vt 0.922935 0.041373
vt 0.892856 0.011295
vt 0.892856 0.011295
vt 0.922935 0.011295
vt 0.892856 0.011295
vt 0.922935 0.011295
vt 0.922935 0.011295
vt 0.892856 0.011295
vt 0.922935 0.011295
vt 0.892856 0.011295
vt 0.922935 0.011295
vt 0.922935 0.041373
vt 0.922935 0.011295
vt 0.922935 0.041373
vt 0.922935 0.011295
vt 0.922935 0.041373
vt 0.892856 0.011295
vt 0.922935 0.041373
vt 0.892856 0.011295
vt 0.922935 0.011295
vt 0.922935 0.011295
vt 0.922935 0.041373
vt 0.892856 0.011295
vt 0.922935 0.011295
vt 0.892856 0.011295
vt 0.922935 0.011295
vt 0.922935 0.041373
vt 0.892856 0.011295
vt 0.922935 0.011295
vt 0.922935 0.041373
vt 0.892856 0.011295
vt 0.922935 0.041373
vt 0.892856 0.011295
vt 0.922935 0.011295
vt 0.922935 0.041373
vt 0.892856 0.011295
vt 0.922935 0.041373
vt 0.892856 0.011295
vt 0.922935 0.011295
vt 0.922935 0.041373
vt 0.892856 0.011295
vt 0.922935 0.011295
vt 0.922935 0.041373
vt 0.922935 0.011295
vt 0.922935 0.011295
vt 0.922935 0.041373
vt 0.922935 0.011295
vt 0.892856 0.011295
vt 0.922935 0.011295
vt 0.922935 0.041373
vt 0.892856 0.011295
vt 0.922935 0.011295
vt 0.922935 0.041373
vt 0.892856 0.011295
vt 0.922935 0.011295
vt 0.922935 0.011295
vt 0.922935 0.041373
vt 0.922935 0.011295
vt 0.922935 0.041373
vt 0.892856 0.011295
vt 0.922935 0.011295
vt 0.922935 0.041373
vt 0.892856 0.011295
vt 0.922935 0.011295
vt 0.892856 0.011295
vt 0.922935 0.011295
vt 0.922935 0.041373
vt 0.892856 0.011295
vt 0.922935 0.011295
vt 0.892856 0.011295
vt 0.922935 0.011295
vt 0.922935 0.041373
vt 0.892856 0.011295
vt 0.922935 0.011295
vt 0.922935 0.041373
vt 0.922935 0.011295
vt 0.922935 0.041373
vt 0.892856 0.011295
vt 0.922935 0.011295
vt 0.922935 0.041373
vt 0.892856 0.011295
vt 0.922935 0.011295
vt 0.922935 0.041373
vt 0.892856 0.011295
vt 0.922935 0.011295
vt 0.922935 0.041373
vt 0.892856 0.011295
vt 0.922935 0.011295
vt 0.922935 0.041373
vt 0.892856 0.011295
vt 0.922935 0.011295
vt 0.922935 0.041373
vt 0.892856 0.011295
vt 0.922935 0.041373
vt 0.892856 0.011295
vt 0.922935 0.041373
vt 0.892856 0.011295
vt 0.922935 0.011295
vt 0.892856 0.011295
vt 0.922935 0.011295
vt 0.922935 0.011295
vt 0.892856 0.011295
vt 0.922935 0.011295
vt 0.892856 0.011295
vt 0.922935 0.011295
vt 0.922935 0.041373
vt 0.922935 0.011295
vt 0.922935 0.041373
vt 0.922935 0.011295
vt 0.922935 0.041373
vt 0.892856 0.011295
vt 0.922935 0.041373
vt 0.892856 0.011295
vt 0.922935 0.011295
vt 0.922935 0.011295
vt 0.922935 0.041373
vt 0.892856 0.011295
vt 0.922935 0.011295
vt 0.892856 0.011295
vt 0.922935 0.011295
vt 0.922935 0.041373
vt 0.892856 0.011295
vt 0.922935 0.011295
vt 0.922935 0.041373
vt 0.892856 0.011295
vt 0.922935 0.041373
vt 0.892856 0.011295
vt 0.922935 0.011295
vt 0.922935 0.041373
vt 0.892856 0.011295
vt 0.922935 0.041373
vt 0.892856 0.011295
vt 0.922935 0.011295
vt 0.922935 0.041373
vt 0.892856 0.011295
vt 0.922935 0.011295
vt 0.922935 0.041373
vt 0.922935 0.011295
vt 0.922935 0.011295
vt 0.922935 0.041373
vt 0.922935 0.011295
vt 0.972707 0.065843
vt 0.977431 0.077580
vt 0.975613 0.077842
vt 0.972415 0.066010
vt 0.977431 0.060538
vt 0.980337 0.072537
vt 0.975613 0.060800
vt 0.979847 0.090055
vt 0.954651 0.059945
vt 0.979847 0.059945
vt 0.922935 0.011295
vt 0.892856 0.041373
vt 0.892856 0.011295
vt 0.922935 0.011295
vt 0.892856 0.041373
vt 0.892856 0.011295
vt 0.963274 0.083752
vt 0.960507 0.083752
vt 0.960507 0.065802
vt 0.968526 0.065801
vt 0.883283 0.023125
vt 0.920871 0.024699
vt 0.921405 0.033997
vt 0.883907 0.033997
vt 0.959106 0.082017
vt 0.957420 0.066329
vt 0.969813 0.095065
vt 0.971077 0.060836
vt 0.892856 0.011295
vt 0.922935 0.041373
vt 0.892856 0.041373
vt 0.892856 0.011295
vt 0.922935 0.041373
vt 0.892856 0.041373
vt 0.892856 0.011295
vt 0.922935 0.011295
vt 0.892856 0.011295
vt 0.922935 0.041373
vt 0.892856 0.041373
vt 0.970454 0.061478
vt 0.970470 0.090338
vt 0.964724 0.085733
vt 0.960517 0.089426
vt 0.957951 0.062513
vt 0.958893 0.081979
vt 0.959954 0.084212
vt 0.970849 0.070339
vt 0.968342 0.078298
vt 0.980628 0.072370
vt 0.954651 0.090055
vt 0.922935 0.041373
vt 0.922935 0.041373
vt 0.971939 0.065801
vt 0.971992 0.083752
vt 0.922935 0.011295
vt 0.922935 0.011295
vt 0.958809 0.081975
vt 0.957692 0.064479
vt 0.922935 0.011295
vn 0.7730 0.0000 -0.6344
vn 0.8819 0.0000 -0.4714
vn 0.9569 0.0000 -0.2903
vn 0.9952 0.0000 -0.0980
vn 0.9952 0.0000 0.0980
vn 0.9569 0.0000 0.2903
vn 0.8819 0.0000 0.4714
vn 0.7730 0.0000 0.6344
vn 0.6344 0.0000 0.7730
vn 0.4714 0.0000 0.8819
vn -0.6344 0.0000 0.7730
vn -0.7730 0.0000 0.6344
vn -0.8819 0.0000 0.4714
vn -0.9569 0.0000 0.2903
vn -0.9952 0.0000 0.0980
vn -0.9952 -0.0000 -0.0980
vn -0.9569 0.0000 -0.2903
vn -0.8819 0.0000 -0.4714
vn -0.7730 0.0000 -0.6344
vn -0.6344 0.0000 -0.7730
vn 0.4714 -0.0000 -0.8819
vn -0.4714 0.0000 0.8819
vn 0.6344 -0.0000 -0.7730
vn -0.0000 -1.0000 -0.0000
vn 0.0000 1.0000 0.0000
vn 0.0000 0.0000 -1.0000
vn -1.0000 0.0000 0.0000
vn 1.0000 0.0000 0.0000
vn 0.0000 0.0000 1.0000
vn -0.8594 0.0000 0.5114
vn -0.4714 0.0000 -0.8819
vn 0.8594 -0.0000 0.5114
vn 0.4714 -0.0001 0.8819
vn 0.8594 0.0003 0.5113
usemtl base
s 1
f 1/1/1 2/2/1 3/3/1
f 4/4/2 5/5/2 2/2/2
f 6/6/3 7/7/3 5/5/3
f 8/8/4 9/9/4 7/7/4
f 10/10/5 11/11/5 9/9/5
f 12/12/6 13/13/6 11/11/6
f 14/14/7 15/15/7 13/13/7
f 16/16/8 17/17/8 15/15/8
f 18/18/9 19/19/9 17/17/9
f 20/20/10 21/21/10 19/19/10
f 22/22/11 23/23/11 24/24/11
f 25/25/12 26/26/12 23/23/12
f 27/27/13 28/28/13 26/26/13
f 29/29/14 30/30/14 28/28/14
f 31/31/15 32/32/15 30/30/15
f 33/33/16 34/34/16 32/32/16
f 35/35/17 36/36/17 34/34/17
f 37/37/18 38/38/18 36/36/18
f 39/39/19 40/40/19 38/38/19
f 41/41/20 42/42/20 40/40/20
f 43/43/16 44/44/16 45/45/16
f 46/46/19 47/47/19 48/48/19
f 49/49/18 50/50/18 47/47/18
f 51/51/5 52/52/5 53/53/5
f 54/54/14 55/55/14 56/56/14
f 44/44/15 54/54/15 56/56/15
f 57/57/12 58/58/12 59/59/12
f 60/60/7 61/61/7 62/62/7
f 63/63/11 64/64/11 58/58/11
f 65/65/21 66/66/21 67/67/21
f 68/68/22 69/69/22 64/64/22
f 70/70/20 48/48/20 71/71/20
f 72/72/9 73/73/9 74/74/9
f 61/61/6 53/53/6 62/62/6
f 75/75/23 67/67/23 76/76/23
f 77/77/2 78/78/2 79/79/2
f 80/80/13 59/59/13 55/55/13
f 81/81/4 82/82/4 52/52/4
f 83/83/17 45/45/17 50/50/17
f 82/82/3 77/77/3 79/79/3
f 84/84/8 60/60/8 73/73/8
f 85/85/1 76/76/1 78/78/1
f 60/86/24 38/87/24 40/88/24
f 7/89/24 56/90/24 55/91/24
f 86/92/23 1/1/23 3/3/23
f 57/93/25 4/94/25 1/95/25
f 35/96/25 51/97/25 61/98/25
f 87/99/10 74/74/10 88/100/10
f 69/69/26 89/101/26 86/92/26
f 88/100/26 90/102/26 87/99/26
f 64/103/24 69/104/24 91/105/24
f 91/106/24 3/107/24 58/108/24
f 2/109/24 5/110/24 55/91/24
f 7/89/24 9/111/24 44/112/24
f 7/89/24 44/113/24 56/114/24
f 3/115/24 2/116/24 59/117/24
f 58/118/24 64/119/24 91/105/24
f 59/120/24 58/121/24 3/122/24
f 5/123/24 7/124/24 55/91/24
f 55/125/24 59/126/24 2/127/24
f 30/128/24 32/129/24 52/130/24
f 30/128/24 52/131/24 82/132/24
f 26/133/24 28/134/24 79/135/24
f 24/136/24 23/137/24 76/138/24
f 19/139/24 92/140/24 93/141/24
f 15/142/24 17/143/24 47/144/24
f 11/145/24 13/146/24 50/147/24
f 44/148/24 9/111/24 11/149/24
f 45/150/24 44/113/24 11/149/24
f 13/151/24 15/152/24 47/144/24
f 28/153/24 30/154/24 82/132/24
f 28/153/24 82/155/24 79/135/24
f 50/156/24 45/157/24 11/149/24
f 47/158/24 50/159/24 13/160/24
f 26/133/24 79/161/24 78/162/24
f 26/133/24 78/163/24 76/138/24
f 47/158/24 17/143/24 48/164/24
f 48/165/24 17/143/24 19/166/24
f 23/167/24 26/168/24 76/138/24
f 24/136/24 76/169/24 67/170/24
f 71/171/24 48/172/24 19/166/24
f 40/173/24 42/174/24 73/175/24
f 42/176/24 88/177/24 74/178/24
f 36/179/24 38/87/24 60/180/24
f 32/181/24 34/182/24 53/183/24
f 53/184/24 52/131/24 32/185/24
f 62/186/24 53/187/24 34/188/24
f 34/189/24 36/190/24 62/191/24
f 42/176/24 74/192/24 73/175/24
f 60/86/24 62/193/24 36/194/24
f 40/173/24 73/195/24 60/180/24
f 72/196/25 87/197/25 90/198/25
f 90/199/25 41/200/25 84/201/25
f 39/202/25 37/203/25 61/98/25
f 35/96/25 33/204/25 81/205/25
f 35/96/25 81/206/25 51/207/25
f 41/208/25 39/209/25 94/210/25
f 84/211/25 72/212/25 90/198/25
f 94/213/25 84/214/25 41/215/25
f 37/216/25 35/217/25 61/98/25
f 61/218/25 94/219/25 39/220/25
f 12/221/25 10/222/25 95/223/25
f 12/221/25 95/224/25 43/225/25
f 16/226/25 14/227/25 83/228/25
f 20/229/25 18/230/25 46/231/25
f 22/232/25 96/233/25 97/234/25
f 27/235/25 25/236/25 85/237/25
f 31/238/25 29/239/25 77/240/25
f 81/241/25 33/204/25 98/242/25
f 98/243/25 33/204/25 31/244/25
f 29/245/25 27/246/25 85/237/25
f 14/247/25 12/248/25 43/225/25
f 14/247/25 43/249/25 83/228/25
f 77/250/25 98/251/25 31/244/25
f 85/252/25 77/253/25 29/254/25
f 16/226/25 83/255/25 49/256/25
f 16/226/25 49/257/25 46/231/25
f 85/252/25 25/236/25 75/258/25
f 75/259/25 25/236/25 22/260/25
f 18/261/25 16/262/25 46/231/25
f 20/229/25 46/263/25 70/264/25
f 65/265/25 75/266/25 22/260/25
f 1/267/25 99/268/25 63/269/25
f 99/270/25 89/271/25 68/272/25
f 6/273/25 4/94/25 57/274/25
f 10/275/25 8/276/25 54/277/25
f 54/278/25 95/224/25 10/279/25
f 80/280/25 54/281/25 8/282/25
f 8/283/25 6/284/25 80/285/25
f 99/270/25 68/286/25 63/269/25
f 57/93/25 80/287/25 6/288/25
f 1/267/25 63/289/25 57/274/25
f 100/290/27 101/291/27 102/292/27
f 103/293/26 104/294/26 101/291/26
f 105/295/28 106/296/28 104/294/28
f 107/297/29 102/298/29 106/299/29
f 104/300/24 102/301/24 101/302/24
f 103/303/25 107/304/25 105/305/25
f 108/306/30 109/307/30 110/308/30 93/309/30
f 24/310/24 67/311/24 111/312/24 112/313/24
f 96/314/22 24/24/22 112/315/22
f 109/316/31 71/71/31 110/317/31
f 97/318/25 65/319/25 22/320/25
f 93/321/24 71/322/24 19/323/24
f 109/324/25 108/325/25 70/264/25
f 112/315/32 66/66/32 96/314/32
f 108/326/25 20/327/25 70/328/25
f 1/1/1 4/4/1 2/2/1
f 4/4/2 6/6/2 5/5/2
f 6/6/3 8/8/3 7/7/3
f 8/8/4 10/10/4 9/9/4
f 10/10/5 12/12/5 11/11/5
f 12/12/6 14/14/6 13/13/6
f 14/14/7 16/16/7 15/15/7
f 16/16/8 18/18/8 17/17/8
f 18/18/9 20/20/9 19/19/9
f 92/329/33 19/19/10 21/21/10
f 20/20/10 113/330/10 21/21/10
f 22/22/11 25/25/11 23/23/11
f 25/25/12 27/27/12 26/26/12
f 27/27/13 29/29/13 28/28/13
f 29/29/14 31/31/14 30/30/14
f 31/31/15 33/33/15 32/32/15
f 33/33/16 35/35/16 34/34/16
f 35/35/17 37/37/17 36/36/17
f 37/37/18 39/39/18 38/38/18
f 39/39/19 41/41/19 40/40/19
f 41/41/20 90/102/20 42/42/20
f 43/43/16 95/331/16 44/44/16
f 46/46/19 49/49/19 47/47/19
f 49/49/18 83/83/18 50/50/18
f 51/51/5 81/81/5 52/52/5
f 54/54/14 80/80/14 55/55/14
f 44/44/15 95/331/15 54/54/15
f 57/57/12 63/63/12 58/58/12
f 60/60/7 94/332/7 61/61/7
f 63/63/11 68/68/11 64/64/11
f 111/333/21 67/67/21 66/66/21
f 65/65/21 114/334/21 66/66/21
f 68/68/22 89/101/22 69/69/22
f 70/70/20 46/46/20 48/48/20
f 72/72/9 84/84/9 73/73/9
f 61/61/6 51/51/6 53/53/6
f 75/75/23 65/65/23 67/67/23
f 77/77/2 85/85/2 78/78/2
f 80/80/13 57/57/13 59/59/13
f 81/81/4 98/335/4 82/82/4
f 83/83/17 43/43/17 45/45/17
f 82/82/3 98/335/3 77/77/3
f 84/84/8 94/332/8 60/60/8
f 85/85/1 75/75/1 76/76/1
f 3/3/23 91/336/23 86/92/23
f 86/92/23 99/337/23 1/1/23
f 87/99/10 72/72/10 74/74/10
f 99/337/26 86/92/26 89/101/26
f 91/336/26 69/69/26 86/92/26
f 88/100/26 42/42/26 90/102/26
f 100/290/27 103/293/27 101/291/27
f 103/293/26 105/295/26 104/294/26
f 105/295/28 107/338/28 106/296/28
f 107/297/29 100/339/29 102/298/29
f 104/300/24 106/340/24 102/301/24
f 103/303/25 100/341/25 107/304/25
f 108/306/30 93/309/30 92/342/30 113/343/30
f 96/314/22 22/22/22 24/24/22
f 109/316/31 70/70/31 71/71/31
f 97/318/25 114/344/25 65/319/25
f 93/321/24 110/345/24 71/322/24
f 97/346/34 96/314/32 66/66/32
f 112/315/32 115/347/32 66/66/32
f 111/333/32 66/66/32 115/347/32
f 114/334/32 97/346/34 66/66/32
f 108/326/25 113/348/25 20/327/25
o 0FRONT_Plane.000
v -1.500000 0.000000 0.000000
v 1.500000 0.000000 0.000000
v 1.500000 3.000000 0.000000
v -1.500000 3.000000 0.000000
vt 0.001953 0.201562
vt 0.998047 0.201562
vt 0.998047 0.998438
vt 0.001953 0.998438
vn 0.0000 -0.0000 1.0000
usemtl base_tattle_tale.png.001
s 1
f 116/349/35 117/350/35 118/351/35 119/352/35
o 1BACK_Plane.000
v 1.500000 0.000000 -0.000001
v -1.500000 -0.000000 0.000001
v -1.500000 3.000000 0.000000
v 1.500000 3.000000 -0.000001
vt 0.998047 0.201562
vt 0.001953 0.201562
vt 0.001953 0.998438
vt 0.998047 0.998438
vn -0.0000 -0.0000 -1.0000
usemtl base_tattle_tale.png.001
s 1
f 120/353/36 121/354/36 122/355/36 123/356/36
o 0BASE_ICON_Cylinder.005
v -0.256116 0.004995 0.104274
v -0.256116 0.004995 0.616509
v 0.256118 0.004995 0.616509
v 0.256118 0.004995 0.104274
vt 0.126953 0.099219
vt 0.126953 0.001563
vt 0.249023 0.001563
vt 0.249023 0.099219
vn 0.0000 1.0000 0.0000
usemtl base_b7IY8S9.png
s 1
f 124/357/37 125/358/37 126/359/37 127/360/37
