# Blender v2.79 (sub 0) OBJ File: 'tt9.blend'
# www.blender.org
mtllib col.mtl
o Cube_Cube.001
v -0.272714 0.000000 0.052920
v -0.272714 2.000000 0.052920
v -0.272714 0.000000 -0.052920
v -0.272714 2.000000 -0.052920
v 0.272714 0.000000 0.052920
v 0.272714 2.000000 0.052920
v 0.272714 0.000000 -0.052920
v 0.272714 2.000000 -0.052920
vn -1.0000 0.0000 0.0000
vn 0.0000 0.0000 -1.0000
vn 1.0000 0.0000 0.0000
vn 0.0000 0.0000 1.0000
vn 0.0000 -1.0000 0.0000
vn 0.0000 1.0000 0.0000
usemtl None
s off
f 1//1 2//1 4//1 3//1
f 3//2 4//2 8//2 7//2
f 7//3 8//3 6//3 5//3
f 5//4 6//4 2//4 1//4
f 3//5 7//5 5//5 1//5
f 8//6 4//6 2//6 6//6
o Cylinder.002
v 0.238738 0.017170 -0.232166
v 0.278260 0.003025 -0.184008
v 0.238738 0.003025 -0.232166
v 0.278260 0.017170 -0.184008
v 0.307628 0.003025 -0.129065
v 0.307628 0.017170 -0.129065
v 0.325713 0.003024 -0.069448
v 0.325713 0.017170 -0.069448
v 0.331819 0.003024 -0.007449
v 0.331819 0.017170 -0.007449
v 0.325713 0.003024 0.054551
v 0.325713 0.017170 0.054551
v 0.307628 0.003024 0.114168
v 0.307628 0.017170 0.114168
v 0.278260 0.003024 0.169111
v 0.278260 0.017170 0.169111
v 0.238738 0.003024 0.217269
v 0.238738 0.017170 0.217269
v 0.190580 0.003024 0.256791
v 0.190580 0.017170 0.256791
v -0.162539 0.017170 0.256791
v -0.210697 0.003024 0.217269
v -0.162539 0.003024 0.256791
v -0.210697 0.017170 0.217269
v -0.250219 0.003024 0.169110
v -0.250219 0.017170 0.169110
v -0.279587 0.003024 0.114167
v -0.279587 0.017170 0.114167
v -0.297672 0.003024 0.054551
v -0.297672 0.017170 0.054551
v -0.303778 0.003024 -0.007449
v -0.303778 0.017170 -0.007449
v -0.297671 0.003024 -0.069448
v -0.297671 0.017170 -0.069448
v -0.279587 0.003025 -0.129065
v -0.279587 0.017170 -0.129065
v -0.250219 0.003025 -0.184008
v -0.250219 0.017170 -0.184008
v -0.210697 0.003025 -0.232166
v -0.210697 0.017170 -0.232166
v 0.175917 0.003024 0.264628
v -0.147876 0.017170 0.264628
v -0.198730 0.003025 -0.242441
v -0.198730 0.017170 -0.242441
v 0.226771 0.003025 -0.242441
v 0.226771 0.017170 -0.242441
v -0.147876 0.003024 0.264628
v 0.175918 0.017170 0.264628
vt 0.969414 0.078255
vt 0.971094 0.069930
vt 0.971085 0.070278
vt 0.970212 0.078229
vt 0.971102 0.069508
vt 0.970966 0.078484
vt 0.971092 0.069007
vt 0.971620 0.079021
vt 0.971048 0.068414
vt 0.972117 0.079841
vt 0.970976 0.067678
vt 0.972400 0.080942
vt 0.970960 0.066615
vt 0.972406 0.082321
vt 0.970921 0.065282
vt 0.972068 0.083975
vt 0.970750 0.063733
vt 0.971314 0.085903
vt 0.970172 0.062145
vt 0.972415 0.066010
vt 0.977431 0.060538
vt 0.977431 0.077580
vt 0.970065 0.088100
vt 0.980337 0.072537
vt 0.892856 0.011295
vt 0.958002 0.079251
vt 0.957083 0.078972
vt 0.959206 0.089299
vt 0.000000 0.000000
vt 0.892856 0.011295
vt 0.956234 0.078355
vt 0.955515 0.077434
vt 0.959228 0.086498
vt 0.892856 0.011295
vt 0.954983 0.076240
vt 0.959193 0.085303
vt 0.922935 0.011295
vt 0.000000 0.000000
vt 0.883283 0.023125
vt 0.922935 0.011295
vt 0.959055 0.090830
vt 0.955747 0.069421
vt 0.955030 0.071364
vt 0.954693 0.073171
vt 0.954693 0.074807
vt 0.922935 0.011295
vt 0.959153 0.084265
vt 0.000000 0.000000
vt 0.922935 0.041373
vt 0.892856 0.011295
vt 0.959242 0.087837
vt 0.892856 0.011295
vt 0.959129 0.082714
vt 0.922935 0.011295
vt 0.922935 0.011295
vt 0.922935 0.011295
vt 0.922935 0.041373
vt 0.971939 0.065801
vt 0.892856 0.011295
vt 0.970470 0.090338
vt 0.922935 0.011295
vt 0.922935 0.011295
vt 0.922935 0.011295
vt 0.922935 0.041373
vt 0.922935 0.011295
vt 0.000000 0.000000
vt 0.957420 0.066329
vt 0.971992 0.083752
vt 0.922935 0.011295
vt 0.922935 0.011295
vt 0.922935 0.011295
vt 0.922935 0.011295
vt 0.922935 0.011295
vt 0.922935 0.011295
vt 0.922935 0.011295
vt 0.922935 0.011295
vt 0.956886 0.067378
vt 0.959542 0.082035
vt 0.892856 0.011295
vt 0.959124 0.083396
vt 0.892856 0.011295
vt 0.959222 0.082245
vt 0.892856 0.011295
vt 0.959106 0.082017
vn 0.7730 0.0000 -0.6344
vn 0.8819 0.0000 -0.4714
vn 0.9569 0.0000 -0.2903
vn 0.9952 0.0000 -0.0980
vn 0.9952 0.0000 0.0980
vn 0.9569 0.0000 0.2903
vn 0.8819 0.0000 0.4714
vn 0.7730 0.0000 0.6344
vn 0.6344 0.0000 0.7730
vn 0.0000 0.0000 -1.0000
vn -0.7730 0.0000 -0.6344
vn 0.5556 -0.5220 -0.6472
vn -0.0000 -1.0000 -0.0000
vn -0.9569 0.0000 -0.2903
vn -0.9952 0.0000 -0.0980
vn -0.3534 0.8400 -0.4116
vn -0.3534 -0.8400 -0.4116
vn -0.3048 -0.8838 -0.3550
vn -0.5970 0.4002 -0.6953
vn -0.9952 0.0000 0.0980
vn 0.3048 -0.8838 -0.3550
vn 0.6514 0.0000 -0.7587
vn -0.8819 0.0000 -0.4714
vn -0.8819 0.0000 0.4714
vn 0.0000 1.0000 0.0000
vn 0.2430 -0.0000 0.9700
vn 0.4714 -0.0000 0.8819
vn 0.0000 0.0000 1.0000
vn -0.6344 0.0000 0.7730
vn -0.9569 0.0000 0.2903
vn -0.7730 0.0000 0.6344
vn -0.4714 0.0000 0.8819
usemtl base
s 1
f 9/1/7 10/2/7 11/3/7
f 12/4/8 13/5/8 10/2/8
f 14/6/9 15/7/9 13/5/9
f 16/8/10 17/9/10 15/7/10
f 18/10/11 19/11/11 17/9/11
f 20/12/12 21/13/12 19/11/12
f 22/14/13 23/15/13 21/13/13
f 24/16/14 25/17/14 23/15/14
f 26/18/15 27/19/15 25/17/15
f 52/20/16 53/21/16 51/22/16
f 9/1/7 12/4/7 10/2/7
f 12/4/8 14/6/8 13/5/8
f 14/6/9 16/8/9 15/7/9
f 16/8/10 18/10/10 17/9/10
f 18/10/11 20/12/11 19/11/11
f 20/12/12 22/14/12 21/13/12
f 22/14/13 24/16/13 23/15/13
f 24/16/14 26/18/14 25/17/14
f 26/18/15 28/23/15 27/19/15
f 52/20/16 54/24/16 53/21/16
f 48/25/17 47/26/17 45/27/17 46/28/17
f 53/29/18 13/5/19 15/7/19
f 53/29/18 15/7/19 17/9/19
f 44/30/20 43/31/20 41/32/20 42/33/20
f 53/29/18 17/9/19 19/11/19
f 53/29/18 19/11/19 21/13/19
f 53/29/18 21/13/19 23/15/19
f 53/29/18 23/15/19 25/17/19
f 42/34/21 41/32/21 39/35/21 40/36/21
f 53/29/18 25/17/19 27/19/19
f 53/29/18 27/19/19 49/37/19
f 53/29/19 55/38/19 31/39/19
f 52/40/22 51/22/23 47/26/24 48/41/25
f 53/29/19 31/39/19 30/42/19
f 53/29/19 30/42/19 33/43/19
f 53/29/19 33/43/19 35/44/19
f 53/29/19 35/44/19 37/45/19
f 40/46/26 39/35/26 37/45/26 38/47/26
f 53/29/19 37/45/19 39/35/19
f 53/29/19 39/35/19 41/32/19
f 53/29/19 41/32/19 43/31/19
f 53/29/19 43/31/19 45/27/19
f 11/3/27 53/21/18 54/48/28 9/49/28
f 53/29/19 45/27/19 47/26/24
f 53/29/19 47/26/24 51/22/23
f 46/50/29 45/27/29 43/31/29 44/51/29
f 36/52/30 35/44/30 33/43/30 34/53/30
f 48/25/31 46/54/31 44/55/31
f 48/25/31 44/55/31 42/56/31
f 48/25/31 42/56/31 40/46/31
f 48/25/31 40/46/31 38/57/31
f 49/58/32 27/59/33 28/23/33 56/60/32
f 48/25/31 38/57/31 36/61/31
f 48/25/31 36/61/31 34/62/31
f 48/25/31 34/62/31 32/63/31
f 48/25/31 32/63/31 29/64/31
f 48/25/31 29/64/31 50/65/31
f 50/66/34 55/67/34 49/58/32 56/68/32
f 48/25/31 56/68/31 28/23/31
f 48/25/31 28/23/31 26/69/31
f 48/25/31 26/69/31 24/70/31
f 48/25/31 24/70/31 22/71/31
f 48/25/31 22/71/31 20/72/31
f 48/25/31 20/72/31 18/73/31
f 48/25/31 18/73/31 16/74/31
f 48/25/31 16/74/31 14/75/31
f 48/25/31 14/75/31 12/76/31
f 48/25/31 12/76/31 9/49/31
f 48/25/25 54/48/31 52/40/22
f 32/63/35 30/42/35 31/77/35 29/78/35
f 38/79/36 37/45/36 35/44/36 36/80/36
f 34/81/37 33/43/37 30/42/37 32/82/37
f 29/83/38 31/77/38 55/67/38 50/84/38
f 53/21/18 11/3/27 10/2/19
f 53/21/18 10/2/19 13/5/19
usemtl base_NONE
s off
f 53/29/19 49/37/19 55/38/19
f 48/25/31 50/65/31 56/68/31
f 48/25/31 9/49/31 54/48/31
