# Blender v2.79 (sub 0) OBJ File: 'mega-token.blend'
# www.blender.org
mtllib OK.mtl
o Cube
v 1.000000 0.050000 -1.000000
v 1.000000 0.050000 1.000000
v -1.000000 0.050000 1.000000
v -1.000000 0.050000 -1.000000
v 1.000000 0.150000 -0.999999
v 0.999999 0.150000 1.000001
v -1.000000 0.150000 1.000000
v -1.000000 0.150000 -1.000000
vt 0.968317 0.997525
vt 0.968317 0.952475
vt 0.998515 0.952475
vt 0.998515 0.997525
vt 0.499835 0.499752
vt 0.466832 0.499752
vt 0.466832 0.450248
vt 0.499835 0.450248
vt 0.999835 0.997525
vt 0.999835 0.999752
vt 0.966832 0.999752
vt 0.966832 0.997525
vt 0.966832 0.950248
vt 0.968317 0.950248
vt 0.968317 0.999752
vt 0.966832 0.999752
vt 0.999835 0.950248
vt 0.999835 0.952475
vt 0.966832 0.952475
vt 0.966832 0.950248
vt 0.998515 0.999752
vt 0.998515 0.950248
vt 0.999835 0.950248
vn 0.0000 -1.0000 -0.0000
vn 0.0000 1.0000 -0.0000
vn 1.0000 0.0000 0.0000
vn -0.0000 -0.0000 1.0000
vn -1.0000 -0.0000 -0.0000
vn 0.0000 0.0000 -1.0000
usemtl Material
s off
f 1/1/1 2/2/1 3/3/1 4/4/1
f 5/5/2 8/6/2 7/7/2 6/8/2
f 1/9/3 5/10/3 6/11/3 2/12/3
f 2/13/4 6/14/4 7/15/4 3/16/4
f 3/17/5 7/18/5 8/19/5 4/20/5
f 5/10/6 1/21/6 4/22/6 8/23/6
