# Blender v2.79 (sub 0) OBJ File: 'tt1.blend'
# www.blender.org
mtllib 133_col.mtl
o Cube
v -0.776061 0.093378 0.100000
v -0.776061 2.093378 0.100000
v -0.776061 0.093378 -0.100000
v -0.776061 2.093378 -0.100000
v 0.776061 0.093378 0.100000
v 0.776061 2.093378 0.100000
v 0.776061 0.093378 -0.100000
v 0.776061 2.093378 -0.100000
vn -1.0000 0.0000 0.0000
vn 0.0000 0.0000 -1.0000
vn 1.0000 0.0000 0.0000
vn 0.0000 0.0000 1.0000
vn 0.0000 -1.0000 0.0000
vn 0.0000 1.0000 0.0000
usemtl None
s off
f 1//1 2//1 4//1 3//1
f 3//2 4//2 8//2 7//2
f 7//3 8//3 6//3 5//3
f 5//4 6//4 2//4 1//4
f 3//5 7//5 5//5 1//5
f 8//6 4//6 2//6 6//6
o Cylinder_Cylinder.007
v 0.000000 0.000000 -0.840499
v 0.000000 0.093378 -0.840499
v 0.494033 0.000000 -0.679978
v 0.494033 0.093378 -0.679978
v 0.799362 0.000000 -0.259728
v 0.799362 0.093378 -0.259728
v 0.799362 0.000000 0.259728
v 0.799362 0.093378 0.259728
v 0.494033 0.000000 0.679978
v 0.494033 0.093378 0.679978
v -0.000000 0.000000 0.840499
v -0.000000 0.093378 0.840499
v -0.494033 0.000000 0.679978
v -0.494033 0.093378 0.679978
v -0.799362 0.000000 0.259729
v -0.799362 0.093378 0.259729
v -0.799362 0.000000 -0.259729
v -0.799362 0.093378 -0.259729
v -0.494033 0.000000 -0.679978
v -0.494033 0.093378 -0.679978
vn 0.3090 0.0000 -0.9511
vn 0.8090 0.0000 -0.5878
vn 1.0000 0.0000 0.0000
vn 0.8090 0.0000 0.5878
vn 0.3090 0.0000 0.9511
vn -0.3090 0.0000 0.9511
vn -0.8090 0.0000 0.5878
vn -1.0000 0.0000 0.0000
vn 0.0000 1.0000 0.0000
vn -0.8090 0.0000 -0.5878
vn -0.3090 0.0000 -0.9511
vn 0.0000 -1.0000 0.0000
usemtl None
s off
f 9//7 10//7 12//7 11//7
f 11//8 12//8 14//8 13//8
f 13//9 14//9 16//9 15//9
f 15//10 16//10 18//10 17//10
f 17//11 18//11 20//11 19//11
f 19//12 20//12 22//12 21//12
f 21//13 22//13 24//13 23//13
f 23//14 24//14 26//14 25//14
f 12//15 10//15 28//15 26//15 24//15 22//15 20//15 18//15 16//15 14//15
f 25//16 26//16 28//16 27//16
f 27//17 28//17 10//17 9//17
f 9//18 11//18 13//18 15//18 17//18 19//18 21//18 23//18 25//18 27//18
