# Blender v2.79 (sub 0) OBJ File: 'tt8.blend'
# www.blender.org
mtllib nb3.mtl
o Cube.001_Cube.003
v -0.450409 0.000000 -0.364181
v -0.450409 0.034696 -0.364181
v -0.450409 0.000000 -0.533377
v -0.450409 0.034696 -0.533377
v 0.450409 0.000000 -0.364181
v 0.450409 0.034696 -0.364181
v 0.450409 0.000000 -0.533377
v 0.450409 0.034696 -0.533377
v 0.495979 0.000000 -0.495979
v 0.495979 0.034696 -0.495979
v 0.583209 0.000000 -0.389688
v 0.583209 0.034696 -0.389688
v 0.648027 0.000000 -0.268422
v 0.648027 0.034696 -0.268422
v 0.687942 0.000000 -0.136840
v 0.687942 0.034696 -0.136840
v 0.701420 0.000000 -0.000000
v 0.701420 0.034696 -0.000000
v 0.687942 0.000000 0.136840
v 0.687942 0.034696 0.136840
v 0.648027 0.000000 0.268422
v 0.648027 0.034696 0.268422
v 0.583209 0.000000 0.389688
v 0.583209 0.034696 0.389688
v 0.495979 0.000000 0.495979
v 0.495979 0.034696 0.495979
v 0.389688 0.000000 0.583209
v 0.389688 0.034696 0.583209
v -0.389688 0.000000 0.583209
v -0.389688 0.034696 0.583209
v -0.495979 0.000000 0.495978
v -0.495979 0.034696 0.495978
v -0.583209 0.000000 0.389687
v -0.583209 0.034696 0.389687
v -0.648028 0.000000 0.268421
v -0.648028 0.034696 0.268421
v -0.687942 0.000000 0.136840
v -0.687942 0.034696 0.136840
v -0.701420 0.000000 -0.000001
v -0.701420 0.034696 -0.000001
v -0.687942 0.000000 -0.136841
v -0.687942 0.034696 -0.136841
v -0.648027 0.000000 -0.268422
v -0.648027 0.034696 -0.268422
v -0.583209 0.000000 -0.389689
v -0.583209 0.034696 -0.389689
v -0.495978 0.000000 -0.495979
v -0.495978 0.034696 -0.495979
v 0.540918 0.000000 -0.000000
v 0.540918 0.034696 -0.000000
v 0.530525 0.000000 -0.105528
v 0.530525 0.034696 -0.105528
v 0.530525 0.034696 0.105528
v 0.530525 0.000000 0.105528
v 0.499743 0.034696 0.207000
v 0.499743 0.000000 0.207000
v 0.449757 0.034696 0.300518
v 0.449757 0.000000 0.300518
v 0.382487 0.000000 0.382487
v 0.382487 0.034696 0.382487
v 0.300518 0.000000 0.449757
v 0.300518 0.034696 0.449757
v -0.300518 0.034696 0.449757
v -0.300518 0.000000 0.449757
v -0.449757 0.034696 0.300518
v -0.449757 0.000000 0.300518
v -0.499744 0.000000 0.207000
v -0.499744 0.034696 0.207000
v -0.382487 0.034696 0.382487
v -0.382487 0.000000 0.382487
v -0.530525 0.000000 -0.105529
v -0.530525 0.034696 -0.105529
v -0.540918 0.000000 -0.000001
v -0.540918 0.034696 -0.000001
v -0.530525 0.000000 0.105527
v -0.530525 0.034696 0.105527
v 0.499743 0.000000 -0.207001
v 0.499743 0.034696 -0.207001
v 0.449757 0.000000 -0.300518
v 0.449757 0.034696 -0.300518
v -0.449757 0.000000 -0.300519
v -0.449757 0.034696 -0.300519
v -0.499743 0.000000 -0.207001
v -0.499743 0.034696 -0.207001
v 0.382487 0.000000 -0.382487
v 0.382487 0.034696 -0.382487
v -0.382487 0.000000 -0.382488
v -0.382487 0.034696 -0.382488
v 0.300518 0.000000 -0.449757
v 0.300518 0.034696 -0.449757
v -0.300518 0.000000 -0.449758
v -0.300518 0.034696 -0.449758
v 0.207001 0.000000 -0.499743
v 0.207001 0.034696 -0.499743
v 0.105528 0.000000 -0.530525
v 0.105528 0.034696 -0.530525
v -0.207000 0.000000 -0.499744
v -0.207000 0.034696 -0.499744
v -0.105527 0.000000 -0.530525
v -0.105527 0.034696 -0.530525
v -0.450409 0.034696 -0.533377
v -0.450409 0.000000 -0.533377
v 0.076569 0.000000 -0.533377
v -0.076570 0.000000 -0.533377
v 0.450409 0.000000 -0.533377
v 0.450409 0.034696 -0.533377
v -0.076570 0.034696 -0.533377
v 0.076569 0.034696 -0.533377
v -0.275561 0.000000 0.463097
v -0.275561 0.034696 0.463097
v -0.357326 0.034696 0.600507
v -0.357326 0.000000 0.600507
v 0.275561 0.034696 0.463097
v 0.275561 0.000000 0.463097
v 0.357326 0.000000 0.600507
v 0.357326 0.034696 0.600507
vt 0.883320 0.004219
vt 0.923320 0.004219
vt 0.923320 0.044219
vt 0.883320 0.044219
vt 0.883320 0.004219
vt 0.923320 0.004219
vt 0.923320 0.044219
vt 0.883320 0.044219
vt 0.883320 0.004219
vt 0.923320 0.004219
vt 0.923320 0.044219
vt 0.883320 0.044219
vt 0.883320 0.004219
vt 0.923320 0.004219
vt 0.923320 0.044219
vt 0.883320 0.044219
vt 0.923320 0.004219
vt 0.923320 0.044219
vt 0.883320 0.004219
vt 0.883320 0.044219
vt 0.883320 0.004219
vt 0.923320 0.004219
vt 0.923320 0.044219
vt 0.883320 0.044219
vt 0.883320 0.004219
vt 0.923320 0.004219
vt 0.923320 0.044219
vt 0.883320 0.044219
vt 0.883320 0.004219
vt 0.923320 0.004219
vt 0.923320 0.044219
vt 0.883320 0.044219
vt 0.883320 0.004219
vt 0.923320 0.004219
vt 0.923320 0.044219
vt 0.883320 0.044219
vt 0.883320 0.004219
vt 0.923320 0.004219
vt 0.923320 0.044219
vt 0.883320 0.044219
vt 0.883320 0.004219
vt 0.923320 0.004219
vt 0.923320 0.044219
vt 0.883320 0.044219
vt 0.883320 0.004219
vt 0.923320 0.004219
vt 0.923320 0.044219
vt 0.883320 0.044219
vt 0.883320 0.004219
vt 0.923320 0.004219
vt 0.923320 0.044219
vt 0.883320 0.044219
vt 0.883320 0.004219
vt 0.923320 0.004219
vt 0.923320 0.044219
vt 0.883320 0.044219
vt 0.883320 0.004219
vt 0.923320 0.004219
vt 0.923320 0.044219
vt 0.883320 0.044219
vt 0.883320 0.004219
vt 0.923320 0.004219
vt 0.923320 0.044219
vt 0.883320 0.044219
vt 0.883320 0.004219
vt 0.923320 0.004219
vt 0.923320 0.044219
vt 0.883320 0.044219
vt 0.883320 0.004219
vt 0.923320 0.004219
vt 0.923320 0.044219
vt 0.883320 0.044219
vt 0.883320 0.004219
vt 0.923320 0.004219
vt 0.923320 0.044219
vt 0.883320 0.044219
vt 0.883320 0.004219
vt 0.923320 0.004219
vt 0.923320 0.044219
vt 0.883320 0.044219
vt 0.883320 0.004219
vt 0.923320 0.004219
vt 0.923320 0.044219
vt 0.883320 0.044219
vt 0.883320 0.004219
vt 0.923320 0.004219
vt 0.923320 0.044219
vt 0.883320 0.044219
vt 0.883320 0.004219
vt 0.923320 0.004219
vt 0.923320 0.044219
vt 0.883320 0.044219
vt 0.883320 0.004219
vt 0.923320 0.004219
vt 0.923320 0.044219
vt 0.883320 0.044219
vt 0.883320 0.004219
vt 0.923320 0.004219
vt 0.923320 0.044219
vt 0.883320 0.044219
vt 0.883320 0.004219
vt 0.923320 0.004219
vt 0.923320 0.044219
vt 0.883320 0.044219
vt 0.883320 0.004219
vt 0.923320 0.004219
vt 0.923320 0.044219
vt 0.883320 0.044219
vt 0.883320 0.004219
vt 0.923320 0.004219
vt 0.923320 0.044219
vt 0.883320 0.044219
vt 0.883320 0.004219
vt 0.923320 0.004219
vt 0.923320 0.044219
vt 0.883320 0.044219
vt 0.883320 0.004219
vt 0.923320 0.004219
vt 0.923320 0.044219
vt 0.883320 0.044219
vt 0.883320 0.004219
vt 0.923320 0.004219
vt 0.923320 0.044219
vt 0.883320 0.044219
vt 0.883320 0.004219
vt 0.923320 0.004219
vt 0.923320 0.044219
vt 0.883320 0.044219
vt 0.883320 0.004219
vt 0.923320 0.004219
vt 0.923320 0.044219
vt 0.883320 0.044219
vt 0.883320 0.004219
vt 0.923320 0.004219
vt 0.923320 0.044219
vt 0.883320 0.044219
vt 0.883320 0.004219
vt 0.923320 0.004219
vt 0.923320 0.044219
vt 0.883320 0.044219
vt 0.883320 0.004219
vt 0.923320 0.004219
vt 0.923320 0.044219
vt 0.883320 0.044219
vt 0.883320 0.004219
vt 0.883320 0.004219
vt 0.923320 0.004219
vt 0.923320 0.044219
vt 0.883320 0.044219
vt 0.883320 0.004219
vt 0.923320 0.004219
vt 0.923320 0.044219
vt 0.883320 0.044219
vt 0.883320 0.004219
vt 0.923320 0.004219
vt 0.923320 0.044219
vt 0.883320 0.044219
vt 0.883320 0.004219
vt 0.923320 0.004219
vt 0.923320 0.044219
vt 0.883320 0.044219
vt 0.883320 0.004219
vt 0.923320 0.004219
vt 0.923320 0.044219
vt 0.883320 0.044219
vt 0.883320 0.004219
vt 0.923320 0.004219
vt 0.923320 0.044219
vt 0.883320 0.044219
vt 0.883320 0.004219
vt 0.923320 0.004219
vt 0.923320 0.044219
vt 0.883320 0.044219
vt 0.883320 0.004219
vt 0.923320 0.004219
vt 0.923320 0.044219
vt 0.883320 0.044219
vt 0.883320 0.004219
vt 0.923320 0.004219
vt 0.923320 0.044219
vt 0.883320 0.044219
vt 0.883320 0.004219
vt 0.923320 0.004219
vt 0.923320 0.044219
vt 0.883320 0.044219
vt 0.883320 0.004219
vt 0.923320 0.004219
vt 0.923320 0.044219
vt 0.883320 0.044219
vt 0.883320 0.004219
vt 0.923320 0.004219
vt 0.923320 0.044219
vt 0.883320 0.044219
vt 0.883320 0.004219
vt 0.923320 0.004219
vt 0.923320 0.044219
vt 0.883320 0.044219
vt 0.883320 0.004219
vt 0.923320 0.004219
vt 0.923320 0.044219
vt 0.883320 0.044219
vt 0.923320 0.004219
vt 0.923320 0.044219
vt 0.883320 0.004219
vt 0.923320 0.004219
vt 0.923320 0.044219
vt 0.883320 0.044219
vt 0.923320 0.004219
vt 0.923320 0.044219
vt 0.923320 0.004219
vt 0.923320 0.044219
vt 0.883320 0.004219
vt 0.923320 0.004219
vt 0.923320 0.044219
vt 0.883320 0.044219
vt 0.883320 0.004219
vt 0.923320 0.004219
vt 0.923320 0.044219
vt 0.883320 0.044219
vt 0.883320 0.004219
vt 0.883320 0.004219
vt 0.883320 0.004219
vt 0.923320 0.004219
vt 0.923320 0.044219
vt 0.883320 0.044219
vt 0.923320 0.004219
vt 0.883320 0.044219
vt 0.883320 0.004219
vt 0.923320 0.004219
vt 0.923320 0.044219
vt 0.883320 0.044219
vt 0.883320 0.004219
vt 0.923320 0.004219
vt 0.923320 0.044219
vt 0.883320 0.044219
vt 0.923320 0.004219
vt 0.923320 0.044219
vt 0.883320 0.004219
vt 0.923320 0.044219
vt 0.883320 0.004219
vt 0.883320 0.004219
vt 0.923320 0.004219
vt 0.923320 0.044219
vt 0.883320 0.044219
vt 0.883320 0.004219
vt 0.923320 0.004219
vt 0.883320 0.004219
vt 0.883320 0.004219
vt 0.883320 0.004219
vt 0.883320 0.004219
vt 0.883320 0.004219
vt 0.883320 0.004219
vt 0.883320 0.004219
vt 0.883320 0.004219
vt 0.883320 0.004219
vt 0.883320 0.004219
vt 0.923320 0.044219
vt 0.923320 0.004219
vt 0.883320 0.004219
vt 0.883320 0.004219
vt 0.883320 0.004219
vt 0.883320 0.004219
vt 0.923320 0.004219
vt 0.883320 0.004219
vt 0.883320 0.004219
vt 0.883320 0.004219
vt 0.883320 0.004219
vt 0.883320 0.004219
vt 0.883320 0.004219
vt 0.883320 0.004219
vt 0.883320 0.004219
vt 0.883320 0.004219
vt 0.883320 0.004219
vt 0.883320 0.004219
vt 0.883320 0.004219
vt 0.883320 0.004219
vt 0.883320 0.004219
vt 0.923320 0.044219
vt 0.883320 0.004219
vt 0.923320 0.004219
vt 0.923320 0.044219
vt 0.923320 0.044219
vt 0.923320 0.004219
vt 0.923320 0.044219
vt 0.923320 0.004219
vt 0.923320 0.044219
vt 0.923320 0.004219
vt 0.923320 0.044219
vt 0.923320 0.004219
vt 0.923320 0.044219
vt 0.923320 0.004219
vt 0.923320 0.004219
vt 0.923320 0.044219
vt 0.923320 0.004219
vt 0.923320 0.044219
vt 0.923320 0.004219
vt 0.923320 0.044219
vt 0.923320 0.004219
vt 0.923320 0.004219
vt 0.923320 0.044219
vt 0.883320 0.004219
vt 0.923320 0.004219
vt 0.923320 0.044219
vt 0.923320 0.004219
vt 0.923320 0.044219
vt 0.923320 0.044219
vt 0.923320 0.004219
vt 0.923320 0.044219
vt 0.923320 0.004219
vt 0.923320 0.044219
vt 0.923320 0.044219
vt 0.923320 0.004219
vt 0.923320 0.004219
vt 0.923320 0.044219
vt 0.923320 0.004219
vt 0.923320 0.044219
vt 0.923320 0.004219
vt 0.923320 0.044219
vt 0.923320 0.004219
vt 0.923320 0.044219
vt 0.923320 0.004219
vt 0.923320 0.004219
vt 0.923320 0.044219
vt 0.923320 0.004219
vt 0.923320 0.004219
vt 0.923320 0.044219
vt 0.923320 0.004219
vt 0.923320 0.044219
vt 0.923320 0.004219
vt 0.923320 0.004219
vt 0.923320 0.044219
vt 0.923320 0.004219
vt 0.923320 0.004219
vt 0.923320 0.044219
vt 0.923320 0.044219
vt 0.923320 0.004219
vt 0.923320 0.044219
vt 0.923320 0.004219
vt 0.923320 0.044219
vt 0.923320 0.044219
vt 0.923320 0.044219
vt 0.923320 0.004219
vt 0.923320 0.004219
vt 0.923320 0.004219
vt 0.923320 0.044219
vt 0.923320 0.004219
vn -1.0000 0.0000 0.0000
vn 0.0000 0.0000 -1.0000
vn 1.0000 0.0000 0.0000
vn 0.0000 0.0000 1.0000
vn 0.0000 -1.0000 0.0000
vn 0.0000 1.0000 0.0000
vn 0.7730 0.0000 -0.6344
vn 0.8819 0.0000 -0.4714
vn 0.9569 0.0000 -0.2903
vn 0.9952 0.0000 -0.0980
vn 0.9952 0.0000 0.0980
vn 0.9569 0.0000 0.2903
vn 0.8819 0.0000 0.4714
vn 0.7730 0.0000 0.6344
vn 0.6344 0.0000 0.7730
vn 0.4714 0.0000 0.8819
vn -0.6344 0.0000 0.7730
vn -0.7730 0.0000 0.6344
vn -0.8819 0.0000 0.4714
vn -0.9569 0.0000 0.2903
vn -0.9952 0.0000 0.0980
vn -0.9952 0.0000 -0.0980
vn -0.9569 0.0000 -0.2903
vn -0.8819 0.0000 -0.4714
vn -0.7730 0.0000 -0.6344
vn -0.6344 0.0000 -0.7730
vn 0.2903 0.0000 0.9569
vn 0.4714 0.0000 -0.8819
vn -0.4714 0.0000 0.8819
vn 0.6344 0.0000 -0.7730
vn -0.0980 0.0000 0.9952
vn -0.2903 0.0000 0.9569
vn 0.0980 0.0000 0.9952
vn -0.8594 0.0000 0.5114
vn 0.8594 0.0000 0.5114
vn -0.4714 0.0000 -0.8819
usemtl None
s off
f 1/1/1 2/2/1 4/3/1 3/4/1
f 3/5/2 4/6/2 8/7/2 7/8/2
f 7/9/3 8/10/3 6/11/3 5/12/3
f 5/13/4 6/14/4 2/15/4 1/16/4
f 3/5/5 7/17/5 5/18/5 1/16/5
f 8/19/6 4/6/6 2/15/6 6/20/6
f 9/21/7 10/22/7 12/23/7 11/24/7
f 11/25/8 12/26/8 14/27/8 13/28/8
f 13/29/9 14/30/9 16/31/9 15/32/9
f 15/33/10 16/34/10 18/35/10 17/36/10
f 17/37/11 18/38/11 20/39/11 19/40/11
f 19/41/12 20/42/12 22/43/12 21/44/12
f 21/45/13 22/46/13 24/47/13 23/48/13
f 23/49/14 24/50/14 26/51/14 25/52/14
f 25/53/15 26/54/15 28/55/15 27/56/15
f 27/57/16 28/58/16 116/59/16 115/60/16
f 29/61/17 30/62/17 32/63/17 31/64/17
f 31/65/18 32/66/18 34/67/18 33/68/18
f 33/69/19 34/70/19 36/71/19 35/72/19
f 35/73/20 36/74/20 38/75/20 37/76/20
f 37/77/21 38/78/21 40/79/21 39/80/21
f 39/81/22 40/82/22 42/83/22 41/84/22
f 41/85/23 42/86/23 44/87/23 43/88/23
f 43/89/24 44/90/24 46/91/24 45/92/24
f 45/93/25 46/94/25 48/95/25 47/96/25
f 47/97/26 48/98/26 101/99/26 102/100/26
f 54/101/22 53/102/22 50/103/22 49/104/22
f 59/105/25 60/106/25 57/107/25 58/108/25
f 58/109/24 57/110/24 55/111/24 56/112/24
f 71/113/11 72/114/11 74/115/11 73/116/11
f 51/117/20 52/118/20 78/119/20 77/120/20
f 49/121/21 50/122/21 52/123/21 51/124/21
f 79/125/18 80/126/18 86/127/18 85/128/18
f 81/129/13 82/130/13 84/131/13 83/132/13
f 99/133/27 100/134/27 98/135/27 97/136/27
f 85/137/17 86/138/17 90/139/17 89/140/17
f 64/141/28 63/142/28 110/143/28 109/144/28
f 60/145/6 24/50/6 57/107/6
f 89/146/29 90/147/29 94/148/29 93/149/29
f 61/150/26 62/151/26 60/152/26 59/153/26
f 91/154/15 92/155/15 88/156/15 87/157/15
f 83/158/12 84/159/12 72/160/12 71/161/12
f 70/162/30 69/163/30 63/164/30 64/165/30
f 67/166/8 68/167/8 65/168/8 66/169/8
f 95/170/31 96/171/31 108/172/31 103/173/31
f 77/174/19 78/175/19 80/176/19 79/177/19
f 73/178/10 74/179/10 76/180/10 75/181/10
f 56/182/23 55/183/23 53/184/23 54/185/23
f 97/186/16 98/187/16 92/188/16 91/189/16
f 93/190/32 94/191/32 96/192/32 95/193/32
f 75/194/9 76/195/9 68/196/9 67/197/9
f 87/198/14 88/199/14 82/200/14 81/201/14
f 70/162/5 33/202/5 66/203/5
f 66/204/7 65/205/7 69/206/7 70/207/7
f 87/198/5 45/208/5 91/209/5
f 11/25/5 79/210/5 85/211/5
f 105/212/30 106/213/30 10/214/30 9/215/30
f 104/216/33 107/217/33 100/218/33 99/219/33
f 86/220/6 12/26/6 90/139/6
f 46/221/6 82/130/6 88/156/6
f 106/222/2 105/223/2 103/224/2 108/225/2
f 104/216/2 102/226/2 101/99/2 107/227/2
f 113/228/34 114/229/34 115/230/34 116/231/34
f 112/232/29 111/233/29 30/234/29 29/235/29
f 21/45/5 23/236/5 58/237/5
f 110/238/35 111/233/35 112/239/35 109/144/35
f 36/240/6 34/70/6 65/168/6
f 114/241/36 113/242/36 62/243/36 61/244/36
f 30/245/6 111/233/6 110/143/6
f 30/245/6 110/246/6 32/63/6
f 34/247/6 32/66/6 63/164/6
f 38/248/6 36/74/6 68/196/6
f 74/249/6 40/82/6 76/180/6
f 76/250/6 40/82/6 38/75/6
f 36/240/6 65/205/6 68/196/6
f 110/238/6 63/142/6 32/63/6
f 63/251/6 69/163/6 34/67/6
f 76/250/6 38/78/6 68/196/6
f 69/252/6 65/205/6 34/67/6
f 20/253/6 18/38/6 53/184/6
f 18/254/6 50/122/6 53/184/6
f 24/255/6 22/46/6 57/107/6
f 28/256/6 26/54/6 113/257/6
f 113/228/6 116/258/6 28/55/6
f 62/259/6 113/242/6 26/51/6
f 26/260/6 24/50/6 62/243/6
f 20/253/6 53/102/6 55/111/6
f 20/253/6 55/183/6 22/43/6
f 62/259/6 24/50/6 60/152/6
f 55/261/6 57/110/6 22/43/6
f 10/262/6 106/213/6 94/148/6
f 106/222/6 108/263/6 96/192/6
f 14/264/6 12/26/6 80/176/6
f 18/254/6 16/34/6 52/123/6
f 52/265/6 50/122/6 18/35/6
f 78/266/6 52/118/6 16/31/6
f 16/267/6 14/30/6 78/119/6
f 106/222/6 96/171/6 94/148/6
f 10/262/6 94/191/6 90/139/6
f 78/266/6 14/30/6 80/176/6
f 80/268/6 12/26/6 86/127/6
f 10/262/6 90/147/6 12/23/6
f 100/269/6 107/217/6 101/99/6
f 101/270/6 48/98/6 98/135/6
f 46/221/6 44/90/6 82/200/6
f 42/271/6 40/82/6 72/160/6
f 40/272/6 74/179/6 72/160/6
f 48/273/6 46/94/6 92/188/6
f 98/274/6 100/134/6 101/99/6
f 92/275/6 98/187/6 48/95/6
f 44/276/6 42/86/6 84/131/6
f 42/271/6 72/114/6 84/131/6
f 88/277/6 92/155/6 46/91/6
f 44/276/6 84/159/6 82/200/6
f 47/97/5 102/226/5 97/278/5
f 102/279/5 104/280/5 99/281/5
f 43/89/5 45/208/5 81/282/5
f 39/81/5 41/283/5 71/284/5
f 71/113/5 73/285/5 39/286/5
f 83/158/5 71/287/5 41/288/5
f 41/85/5 43/289/5 83/290/5
f 102/279/5 99/291/5 97/278/5
f 47/97/5 97/292/5 91/209/5
f 83/158/5 43/289/5 81/282/5
f 81/129/5 45/208/5 87/293/5
f 47/97/5 91/294/5 45/295/5
f 37/77/5 39/296/5 75/297/5
f 39/81/5 73/285/5 75/297/5
f 33/69/5 35/298/5 66/203/5
f 29/61/5 31/299/5 109/300/5
f 109/301/5 112/302/5 29/303/5
f 64/141/5 109/304/5 31/305/5
f 31/65/5 33/202/5 64/306/5
f 37/77/5 75/307/5 67/308/5
f 37/77/5 67/309/5 35/310/5
f 64/141/5 33/202/5 70/311/5
f 67/166/5 66/312/5 35/310/5
f 95/170/5 103/313/5 105/314/5
f 105/212/5 9/315/5 93/316/5
f 11/25/5 13/317/5 79/318/5
f 15/33/5 17/319/5 51/320/5
f 17/37/5 49/321/5 51/320/5
f 9/21/5 11/322/5 89/323/5
f 93/190/5 95/324/5 105/314/5
f 89/146/5 93/325/5 9/326/5
f 13/29/5 15/327/5 77/328/5
f 15/33/5 51/329/5 77/328/5
f 85/137/5 89/330/5 11/331/5
f 13/29/5 77/332/5 79/318/5
f 27/57/5 115/333/5 114/334/5
f 27/57/5 114/229/5 25/335/5
f 23/49/5 25/336/5 61/337/5
f 19/41/5 21/338/5 56/339/5
f 49/121/5 17/319/5 54/340/5
f 54/101/5 17/319/5 19/341/5
f 21/45/5 58/342/5 56/339/5
f 114/241/5 61/343/5 25/335/5
f 61/150/5 59/344/5 23/345/5
f 54/101/5 19/346/5 56/339/5
f 59/105/5 58/342/5 23/345/5
o 0BASE_ICON_Cylinder.005
v -0.210640 0.030000 0.417381
v -0.210639 0.030000 0.838663
v 0.210642 0.030000 0.417381
v 0.210643 0.030000 0.838663
vt 0.001953 0.199219
vt 0.001953 0.101562
vt 0.124023 0.101562
vt 0.124023 0.199219
vn 0.0000 1.0000 -0.0000
usemtl base
s off
f 117/347/37 118/348/37 120/349/37 119/350/37
o 0FRONT_Plane.002
v -1.500000 0.000000 -0.000000
v 1.500000 0.000000 -0.000000
v -1.500000 3.000000 0.000000
v 1.500000 3.000000 0.000000
vt 0.001953 0.201562
vt 0.998047 0.201562
vt 0.998047 0.998438
vt 0.001953 0.998438
vn 0.0000 -0.0000 1.0000
usemtl base
s off
f 121/351/38 122/352/38 124/353/38 123/354/38
o 1BACK_Plane.004
v 1.500000 0.000000 -0.000001
v -1.500000 -0.000000 0.000001
v 1.500000 3.000000 -0.000001
v -1.500000 3.000000 0.000000
vt 0.998047 0.201562
vt 0.001953 0.201562
vt 0.001953 0.998438
vt 0.998047 0.998438
vn -0.0000 -0.0000 -1.0000
usemtl base
s off
f 125/355/39 126/356/39 128/357/39 127/358/39
