# Blender v2.79 (sub 0) OBJ File: 'tt-models.blend'
# www.blender.org
mtllib col.mtl
o Cube
v -0.411833 0.000000 0.037993
v -0.411833 2.000000 0.037993
v -0.411833 0.000000 -0.037993
v -0.411833 2.000000 -0.037993
v 0.411833 0.000000 0.037993
v 0.411833 2.000000 0.037993
v 0.411833 0.000000 -0.037993
v 0.411833 2.000000 -0.037993
vn -1.0000 0.0000 0.0000
vn 0.0000 0.0000 -1.0000
vn 1.0000 0.0000 0.0000
vn 0.0000 0.0000 1.0000
vn 0.0000 -1.0000 0.0000
vn 0.0000 1.0000 0.0000
usemtl None
s off
f 1//1 2//1 4//1 3//1
f 3//2 4//2 8//2 7//2
f 7//3 8//3 6//3 5//3
f 5//4 6//4 2//4 1//4
f 3//5 7//5 5//5 1//5
f 8//6 4//6 2//6 6//6
o Cylinder
v 0.329812 -0.000000 -0.329812
v 0.329812 0.031209 -0.329812
v 0.387818 -0.000000 -0.259132
v 0.387818 0.031209 -0.259132
v 0.430920 -0.000000 -0.178493
v 0.430920 0.031209 -0.178493
v 0.457462 -0.000000 -0.090995
v 0.457462 0.031209 -0.090995
v 0.466425 -0.000000 -0.000000
v 0.466425 0.031209 -0.000000
v 0.457462 -0.000000 0.090995
v 0.457462 0.031209 0.090995
v 0.430920 -0.000000 0.178493
v 0.430920 0.031209 0.178493
v 0.387818 -0.000000 0.259132
v 0.387818 0.031209 0.259132
v 0.329812 -0.000000 0.329812
v 0.329812 0.031209 0.329812
v 0.259132 -0.000000 0.387818
v 0.259132 0.031209 0.387818
v -0.259132 -0.000000 0.387818
v -0.259132 0.031209 0.387818
v -0.329812 -0.000000 0.329812
v -0.329812 0.031209 0.329812
v -0.387818 -0.000000 0.259131
v -0.387818 0.031209 0.259131
v -0.430920 -0.000000 0.178493
v -0.430920 0.031209 0.178493
v -0.457462 -0.000000 0.090995
v -0.457462 0.031209 0.090995
v -0.466425 -0.000000 -0.000000
v -0.466425 0.031209 -0.000000
v -0.457462 -0.000000 -0.090995
v -0.457462 0.031209 -0.090995
v -0.430920 -0.000000 -0.178493
v -0.430920 0.031209 -0.178493
v -0.387818 -0.000000 -0.259132
v -0.387818 0.031209 -0.259132
v -0.329812 -0.000000 -0.329812
v -0.329812 0.031209 -0.329812
v -0.282070 0.031209 -0.282070
v -0.221621 0.031209 -0.331680
v -0.331679 0.031209 -0.221621
v -0.198147 0.031209 -0.344227
v -0.312248 -0.000000 -0.344892
v -0.312248 0.031209 -0.344892
v 0.312248 -0.000000 -0.344892
v 0.312248 0.031209 -0.344892
v 0.237612 0.031209 0.399321
v 0.237612 0.008329 0.399321
v 0.237612 -0.000000 0.399321
v -0.237612 -0.000000 0.399321
v -0.237612 0.031209 0.399321
vt 0.969414 0.078255
vt 0.971094 0.069930
vt 0.971085 0.070278
vt 0.970212 0.078229
vt 0.971102 0.069508
vt 0.970966 0.078484
vt 0.971092 0.069007
vt 0.971620 0.079021
vt 0.971048 0.068414
vt 0.972117 0.079841
vt 0.970976 0.067678
vt 0.972400 0.080942
vt 0.970960 0.066615
vt 0.972406 0.082321
vt 0.970921 0.065282
vt 0.972068 0.083975
vt 0.970750 0.063733
vt 0.971314 0.085903
vt 0.970172 0.062145
vt 0.970065 0.088100
vt 0.970414 0.069536
vt 0.959542 0.082035
vt 0.955747 0.069421
vt 0.956886 0.067378
vt 0.959193 0.085303
vt 0.955515 0.077434
vt 0.954983 0.076240
vt 0.959228 0.086498
vt 0.956234 0.078355
vt 0.959242 0.087837
vt 0.957083 0.078972
vt 0.959106 0.082017
vt 0.957420 0.066329
vt 0.970454 0.061478
vt 0.970470 0.090338
vt 0.959222 0.082245
vt 0.959206 0.089299
vt 0.892856 0.011295
vt 0.954693 0.074807
vt 0.954693 0.073171
vt 0.959124 0.083396
vt 0.892856 0.011295
vt 0.955030 0.071364
vt 0.959129 0.082714
vt 0.958002 0.079251
vt 0.000000 0.000000
vt 0.977431 0.060538
vt 0.000000 0.000000
vt 0.922935 0.011295
vt 0.000000 0.000000
vt 0.883283 0.023125
vt 0.977431 0.077580
vt 0.972415 0.066010
vt 0.980337 0.072537
vt 0.922935 0.041373
vt 0.000000 0.000000
vt 0.922935 0.011295
vt 0.892856 0.011295
vt 0.959055 0.090830
vt 0.922935 0.011295
vt 0.892856 0.011295
vt 0.922935 0.011295
vt 0.922935 0.041373
vt 0.892856 0.011295
vt 0.922935 0.011295
vt 0.922935 0.011295
vt 0.892856 0.011295
vt 0.922935 0.011295
vt 0.922935 0.041373
vt 0.892856 0.011295
vt 0.922935 0.011295
vt 0.922935 0.041373
vt 0.922935 0.011295
vt 0.922935 0.011295
vt 0.922935 0.011295
vt 0.892856 0.011295
vt 0.892856 0.011295
vt 0.892856 0.011295
vt 0.959153 0.084265
vt 0.922935 0.011295
vt 0.000000 0.000000
vt 0.922935 0.011295
vt 0.000000 0.000000
vt 0.892856 0.011295
vt 0.922935 0.011295
vt 0.892856 0.011295
vt 0.922935 0.011295
vt 0.892856 0.011295
vt 0.922935 0.011295
vt 0.892856 0.011295
vt 0.922935 0.011295
vt 0.892856 0.011295
vt 0.922935 0.011295
vt 0.892856 0.011295
vt 0.922935 0.011295
vt 0.922935 0.041373
vt 0.892856 0.011295
vt 0.922935 0.011295
vt 0.000000 0.000000
vt 0.000000 0.000000
vt 0.892856 0.011295
vn 0.7730 0.0000 -0.6344
vn 0.8819 0.0000 -0.4714
vn 0.9569 0.0000 -0.2903
vn 0.9952 0.0000 -0.0980
vn 0.9952 0.0000 0.0980
vn 0.9569 0.0000 0.2903
vn 0.8819 0.0000 0.4714
vn 0.7730 0.0000 0.6344
vn 0.6344 0.0000 0.7730
vn 0.4714 0.0000 0.8819
vn -0.6344 0.0000 0.7730
vn -0.9952 0.0000 -0.0980
vn -0.9569 0.0000 -0.2903
vn -0.8819 0.0000 -0.4714
vn -0.4714 0.0000 0.8819
vn -0.9569 0.0000 0.2903
vn -0.8819 0.0000 0.4714
vn 0.0000 -1.0000 0.0000
vn 0.0000 0.0000 -1.0000
vn -0.0000 1.0000 0.0000
vn -0.6514 0.0000 -0.7587
vn -0.0000 0.0000 1.0000
vn -0.7730 0.0000 -0.6344
vn -0.9952 0.0000 0.0980
vn 0.6514 -0.0000 -0.7587
vn -0.7730 0.0000 0.6344
usemtl None_tt_template.png
s off
f 10/1/7 11/2/7 9/3/7
f 12/4/8 13/5/8 11/2/8
f 14/6/9 15/7/9 13/5/9
f 16/8/10 17/9/10 15/7/10
f 18/10/11 19/11/11 17/9/11
f 20/12/12 21/13/12 19/11/12
f 22/14/13 23/15/13 21/13/13
f 24/16/14 25/17/14 23/15/14
f 26/18/15 27/19/15 25/17/15
f 28/20/16 58/21/16 27/19/16
f 30/22/17 31/23/17 29/24/17
f 40/25/18 41/26/18 39/27/18
f 42/28/19 43/29/19 41/26/19
f 44/30/20 45/31/20 43/29/20
f 61/32/21 29/24/21 60/33/21
f 10/1/7 12/4/7 11/2/7
f 12/4/8 14/6/8 13/5/8
f 14/6/9 16/8/9 15/7/9
f 16/8/10 18/10/10 17/9/10
f 18/10/11 20/12/11 19/11/11
f 20/12/12 22/14/12 21/13/12
f 22/14/13 24/16/13 23/15/13
f 24/16/14 26/18/14 25/17/14
f 26/18/15 28/20/15 27/19/15
f 59/34/16 27/19/16 58/21/16
f 28/20/16 57/35/16 58/21/16
f 30/22/17 32/36/17 31/23/17
f 40/25/18 42/28/18 41/26/18
f 42/28/19 44/30/19 43/29/19
f 44/30/20 46/37/20 45/31/20
f 61/32/21 30/22/21 29/24/21
f 38/38/22 37/39/22 35/40/22 36/41/22
f 36/42/23 35/40/23 33/43/23 34/44/23
f 41/26/24 43/29/24 45/31/24
f 41/26/24 45/31/24 47/45/24
f 41/26/24 53/46/24 55/47/24
f 41/26/24 9/48/24 11/2/24
f 41/26/24 11/2/24 13/5/24
f 41/26/24 13/5/24 15/7/24
f 41/26/24 15/7/24 17/9/24
f 41/26/24 17/9/24 19/11/24
f 41/26/24 19/11/24 21/13/24
f 41/26/24 21/13/24 23/15/24
f 41/26/24 23/15/24 25/17/24
f 41/26/24 25/17/24 27/19/24
f 41/26/24 27/19/24 59/49/24
f 41/26/24 60/50/24 29/51/24
f 41/26/24 29/51/24 31/23/24
f 41/26/24 31/23/24 33/43/24
f 41/26/24 33/43/24 35/40/24
f 41/26/24 35/40/24 37/39/24
f 41/26/24 37/39/24 39/27/24
f 53/52/25 54/53/25 56/54/25 55/47/25
f 38/55/26 51/56/26 40/57/26
f 51/56/26 42/58/26 40/57/26
f 47/45/27 48/59/27 54/53/27 53/52/27
f 36/60/26 51/56/26 38/55/26
f 46/61/26 44/62/26 51/63/26
f 44/64/26 42/65/26 51/56/26
f 36/42/26 34/66/26 51/56/26
f 34/67/26 32/68/26 51/56/26
f 32/68/26 30/69/26 51/56/26
f 30/70/26 61/71/26 51/56/26
f 57/35/26 28/20/26 51/56/26
f 49/72/26 48/73/26 46/74/26 51/63/26
f 52/75/26 50/76/26 49/77/26
f 52/75/26 49/77/26 51/78/26
f 58/21/28 57/35/28 61/32/28 60/33/28
f 45/31/29 46/37/29 48/59/29 47/45/29
f 40/57/30 39/27/30 37/39/30 38/79/30
f 24/80/26 52/81/26 26/82/26
f 54/83/26 50/76/26 52/75/26
f 24/84/26 22/85/26 52/81/26
f 22/86/26 20/87/26 52/81/26
f 20/88/26 18/89/26 52/81/26
f 18/90/26 16/91/26 52/81/26
f 16/92/26 14/93/26 52/81/26
f 14/94/26 12/95/26 52/81/26
f 12/95/26 10/96/26 52/81/26
f 56/97/26 54/98/26 52/75/26
f 50/76/26 54/83/26 49/77/26
f 54/83/26 48/73/26 49/72/26
f 56/54/31 10/96/31 9/48/31 55/47/31
f 59/34/28 58/21/28 60/33/28
f 34/67/32 33/43/32 31/23/32 32/36/32
usemtl None
f 41/26/24 47/45/24 53/46/24
f 41/26/24 55/47/24 9/48/24
f 41/26/24 59/49/24 60/50/24
f 61/71/26 57/99/26 51/56/26
f 10/96/26 56/100/26 52/81/26
f 26/82/26 52/81/26 51/56/26 28/101/26
o 1BACK_Plane.004
v 0.997855 0.000000 -0.000000
v -0.997855 -0.000000 0.000000
v 0.997855 3.000000 -0.000001
v -0.997855 3.000000 0.000000
vt 0.998047 0.201562
vt 0.001953 0.201562
vt 0.001953 0.998438
vt 0.998047 0.998438
vn -0.0000 -0.0000 -1.0000
usemtl base
s off
f 62/102/33 63/103/33 65/104/33 64/105/33
o 0FRONT_Plane.002
v -0.997855 0.000000 -0.000000
v 0.997855 0.000000 -0.000000
v -0.997855 3.000000 0.000000
v 0.997855 3.000000 0.000000
vt 0.001953 0.201562
vt 0.998047 0.201562
vt 0.998047 0.998438
vt 0.001953 0.998438
vn 0.0000 -0.0000 1.0000
usemtl base
s off
f 66/106/34 67/107/34 69/108/34 68/109/34
