# Blender v2.79 (sub 0) OBJ File: 'flat.blend'
# www.blender.org
mtllib f6.mtl
o base_Cylinder.007
v 0.001851 0.000070 0.000012
v 0.001868 0.000070 0.000012
v 0.001868 0.000070 0.000398
v 0.001851 0.000070 0.000398
v 0.001868 0.000132 0.000362
v 0.001851 0.000132 0.000362
v 0.001868 0.000178 0.000308
v 0.001851 0.000178 0.000308
v 0.001868 0.000202 0.000241
v 0.001851 0.000202 0.000241
v 0.001868 0.000202 0.000170
v 0.001851 0.000202 0.000170
v 0.001868 0.000178 0.000103
v 0.001851 0.000178 0.000103
v 0.001868 0.000132 0.000048
v 0.001851 0.000132 0.000048
v -0.001868 0.000132 0.000048
v -0.001851 0.000132 0.000048
v -0.001851 0.000070 0.000012
v -0.001868 0.000070 0.000012
v -0.000125 0.000132 0.000048
v -0.000125 0.000070 0.000012
v -0.000104 0.000132 0.000048
v -0.000104 0.000070 0.000012
v 0.000104 0.000132 0.000048
v 0.000125 0.000132 0.000048
v 0.000125 0.000070 0.000012
v 0.000104 0.000070 0.000012
v -0.001868 0.000178 0.000103
v -0.001851 0.000178 0.000103
v -0.000125 0.000178 0.000103
v -0.000104 0.000178 0.000103
v 0.000104 0.000178 0.000103
v 0.000125 0.000178 0.000103
v -0.001868 0.000202 0.000170
v -0.001851 0.000202 0.000170
v -0.000125 0.000202 0.000170
v -0.000104 0.000202 0.000170
v 0.000104 0.000202 0.000170
v 0.000125 0.000202 0.000170
v -0.001868 0.000202 0.000241
v -0.001851 0.000202 0.000241
v -0.000125 0.000202 0.000241
v -0.000104 0.000202 0.000241
v 0.000104 0.000202 0.000241
v 0.000125 0.000202 0.000241
v -0.001868 0.000178 0.000308
v -0.001851 0.000178 0.000308
v -0.000125 0.000178 0.000308
v -0.000104 0.000178 0.000308
v 0.000104 0.000178 0.000308
v 0.000125 0.000178 0.000308
v -0.001868 0.000132 0.000362
v -0.001851 0.000132 0.000362
v -0.000125 0.000132 0.000362
v -0.000104 0.000132 0.000362
v 0.000104 0.000132 0.000362
v 0.000125 0.000132 0.000362
v -0.001868 0.000070 0.000398
v -0.001851 0.000070 0.000398
v -0.000125 0.000070 0.000398
v -0.000104 0.000070 0.000398
v 0.000104 0.000070 0.000398
v 0.000125 0.000070 0.000398
v -0.001868 -0.000000 0.000410
v -0.001851 -0.000000 0.000410
v -0.000125 -0.000000 0.000410
v -0.000104 -0.000000 0.000410
v 0.000104 -0.000000 0.000410
v 0.000125 -0.000000 0.000410
v -0.001851 0.000000 0.000000
v -0.001868 0.000000 0.000000
v -0.000125 0.000000 0.000000
v -0.000104 0.000000 0.000000
v -0.001851 -0.000070 0.000012
v -0.001868 -0.000070 0.000012
v -0.001868 -0.000070 0.000398
v -0.001851 -0.000070 0.000398
v -0.001868 -0.000132 0.000362
v -0.001851 -0.000132 0.000362
v -0.001868 -0.000178 0.000308
v -0.001851 -0.000178 0.000308
v -0.001868 -0.000202 0.000241
v -0.001851 -0.000202 0.000241
v -0.001868 -0.000202 0.000170
v -0.001851 -0.000202 0.000170
v -0.001868 -0.000178 0.000103
v -0.001851 -0.000178 0.000103
v -0.001868 -0.000132 0.000048
v -0.001851 -0.000132 0.000048
v 0.001868 -0.000132 0.000048
v 0.001851 -0.000132 0.000048
v 0.001851 -0.000070 0.000012
v 0.001868 -0.000070 0.000012
v 0.000125 -0.000132 0.000048
v 0.000125 -0.000070 0.000012
v 0.000104 -0.000132 0.000048
v 0.000104 -0.000070 0.000012
v -0.000104 -0.000132 0.000048
v -0.000125 -0.000132 0.000048
v -0.000125 -0.000070 0.000012
v -0.000104 -0.000070 0.000012
v 0.001868 -0.000178 0.000103
v 0.001851 -0.000178 0.000103
v 0.000125 -0.000178 0.000103
v 0.000104 -0.000178 0.000103
v -0.000104 -0.000178 0.000103
v -0.000125 -0.000178 0.000103
v 0.001868 -0.000202 0.000170
v 0.001851 -0.000202 0.000170
v 0.000125 -0.000202 0.000170
v 0.000104 -0.000202 0.000170
v -0.000104 -0.000202 0.000170
v -0.000125 -0.000202 0.000170
v 0.001868 -0.000202 0.000241
v 0.001851 -0.000202 0.000241
v 0.000125 -0.000202 0.000241
v 0.000104 -0.000202 0.000241
v -0.000104 -0.000202 0.000241
v -0.000125 -0.000202 0.000241
v 0.001868 -0.000178 0.000308
v 0.001851 -0.000178 0.000308
v 0.000125 -0.000178 0.000308
v 0.000104 -0.000178 0.000308
v -0.000104 -0.000178 0.000308
v -0.000125 -0.000178 0.000308
v 0.001868 -0.000132 0.000362
v 0.001851 -0.000132 0.000362
v 0.000125 -0.000132 0.000362
v 0.000104 -0.000132 0.000362
v -0.000104 -0.000132 0.000362
v -0.000125 -0.000132 0.000362
v 0.001868 -0.000070 0.000398
v 0.001851 -0.000070 0.000398
v 0.000125 -0.000070 0.000398
v 0.000104 -0.000070 0.000398
v -0.000104 -0.000070 0.000398
v -0.000125 -0.000070 0.000398
v 0.001868 -0.000000 0.000410
v 0.001851 -0.000000 0.000410
v 0.001851 -0.000000 0.000000
v 0.001868 -0.000000 0.000000
v 0.000125 -0.000000 0.000000
v 0.000104 -0.000000 0.000000
vt 0.927431 0.050000
vt 0.927431 0.049541
vt 0.933621 0.049541
vt 0.933621 0.050000
vt 0.877907 0.050000
vt 0.877907 0.049541
vt 0.884097 0.049541
vt 0.884097 0.050000
vt 0.890288 0.049541
vt 0.890288 0.050000
vt 0.896478 0.049541
vt 0.896478 0.050000
vt 0.902669 0.049541
vt 0.902669 0.050000
vt 0.908859 0.049541
vt 0.908859 0.050000
vt 0.915050 0.049541
vt 0.915050 0.050000
vt 0.921240 0.049541
vt 0.921240 0.050000
vt 0.922081 0.051676
vt 0.922081 0.051145
vt 0.928451 0.051145
vt 0.928451 0.051676
vt 0.891971 0.076799
vt 0.928703 0.093079
vt 0.923069 0.099161
vt 0.894852 0.072741
vt 0.922402 0.050716
vt 0.922402 0.050099
vt 0.928702 0.050099
vt 0.928702 0.050716
vt 0.920215 0.051339
vt 0.920215 0.050814
vt 0.926240 0.050814
vt 0.926240 0.051339
vt 0.893971 0.091226
vt 0.928826 0.077638
vt 0.930333 0.084810
vt 0.892461 0.086982
vt 0.915711 0.051676
vt 0.915711 0.051145
vt 0.890911 0.081509
vt 0.931704 0.085648
vt 0.916103 0.050716
vt 0.916103 0.050099
vt 0.914189 0.051339
vt 0.914189 0.050814
vt 0.897091 0.094716
vt 0.924658 0.071324
vt 0.909341 0.051676
vt 0.909341 0.051145
vt 0.891798 0.086251
vt 0.931717 0.077745
vt 0.909804 0.050716
vt 0.909804 0.050099
vt 0.908164 0.051339
vt 0.908164 0.050814
vt 0.901407 0.097001
vt 0.918324 0.066622
vt 0.902971 0.051676
vt 0.902971 0.051145
vt 0.894505 0.090418
vt 0.928729 0.070299
vt 0.903504 0.050716
vt 0.903504 0.050099
vt 0.902138 0.051339
vt 0.902138 0.050814
vt 0.906356 0.097795
vt 0.910568 0.064095
vt 0.896601 0.051676
vt 0.896601 0.051145
vt 0.898673 0.093493
vt 0.923077 0.064198
vt 0.897205 0.050716
vt 0.897205 0.050099
vt 0.896113 0.051339
vt 0.896113 0.050814
vt 0.911314 0.097011
vt 0.902302 0.064056
vt 0.890231 0.051676
vt 0.890231 0.051145
vt 0.903777 0.095109
vt 0.915422 0.060189
vt 0.890905 0.050716
vt 0.890905 0.050099
vt 0.890088 0.051339
vt 0.890088 0.050814
vt 0.915672 0.094759
vt 0.894517 0.066528
vt 0.883861 0.051676
vt 0.883861 0.051145
vt 0.909192 0.095091
vt 0.906693 0.058779
vt 0.884606 0.050716
vt 0.884606 0.050099
vt 0.884063 0.051339
vt 0.884063 0.050814
vt 0.918910 0.091321
vt 0.888161 0.071227
vt 0.877491 0.051676
vt 0.877491 0.051145
vt 0.914277 0.093458
vt 0.897974 0.060155
vt 0.878306 0.050716
vt 0.878306 0.050099
vt 0.878037 0.051339
vt 0.878037 0.050814
vt 0.920652 0.087114
vt 0.884026 0.077586
vt 0.934821 0.051145
vt 0.934821 0.051676
vt 0.915472 0.103156
vt 0.899177 0.069877
vt 0.935001 0.050099
vt 0.935001 0.050716
vt 0.932265 0.050814
vt 0.932265 0.051339
vt 0.928988 0.091965
vt 0.892768 0.082549
vt 0.927431 0.050000
vt 0.927431 0.049541
vt 0.933621 0.049541
vt 0.933621 0.050000
vt 0.877907 0.050000
vt 0.877907 0.049541
vt 0.884097 0.049541
vt 0.884097 0.050000
vt 0.890288 0.049541
vt 0.890288 0.050000
vt 0.896478 0.049541
vt 0.896478 0.050000
vt 0.902669 0.049541
vt 0.902669 0.050000
vt 0.908859 0.049541
vt 0.908859 0.050000
vt 0.915050 0.049541
vt 0.915050 0.050000
vt 0.921240 0.049541
vt 0.921240 0.050000
vt 0.922081 0.051676
vt 0.922081 0.051145
vt 0.928451 0.051145
vt 0.928451 0.051676
vt 0.918563 0.102945
vt 0.897516 0.074863
vt 0.894378 0.078339
vt 0.924888 0.098273
vt 0.922402 0.050716
vt 0.922402 0.050099
vt 0.928702 0.050099
vt 0.928702 0.050716
vt 0.920215 0.051339
vt 0.920215 0.050814
vt 0.926240 0.050814
vt 0.926240 0.051339
vt 0.898035 0.103128
vt 0.909672 0.068228
vt 0.904259 0.068246
vt 0.906760 0.104535
vt 0.915711 0.051676
vt 0.915711 0.051145
vt 0.910806 0.105416
vt 0.901818 0.072568
vt 0.916103 0.050716
vt 0.916103 0.050099
vt 0.914189 0.051339
vt 0.914189 0.050814
vt 0.890385 0.099120
vt 0.914773 0.069844
vt 0.909341 0.051676
vt 0.909341 0.051145
vt 0.902553 0.105416
vt 0.906749 0.071750
vt 0.909804 0.050716
vt 0.909804 0.050099
vt 0.908164 0.051339
vt 0.908164 0.050814
vt 0.884739 0.093022
vt 0.918941 0.072916
vt 0.902971 0.051676
vt 0.902971 0.051145
vt 0.894773 0.102954
vt 0.911683 0.072553
vt 0.903504 0.050716
vt 0.903504 0.050099
vt 0.902138 0.051339
vt 0.902138 0.050814
vt 0.881759 0.085579
vt 0.921648 0.077080
vt 0.896601 0.051676
vt 0.896601 0.051145
vt 0.888379 0.098315
vt 0.915965 0.074880
vt 0.897205 0.050716
vt 0.897205 0.050099
vt 0.896113 0.051339
vt 0.896113 0.050814
vt 0.881759 0.077676
vt 0.922555 0.081813
vt 0.890231 0.051676
vt 0.890231 0.051145
vt 0.884149 0.092029
vt 0.919048 0.078406
vt 0.890905 0.050716
vt 0.890905 0.050099
vt 0.890088 0.051339
vt 0.890088 0.050814
vt 0.884740 0.070237
vt 0.921486 0.086519
vt 0.883861 0.051676
vt 0.883861 0.051145
vt 0.882632 0.084821
vt 0.920700 0.082633
vt 0.884606 0.050716
vt 0.884606 0.050099
vt 0.884063 0.051339
vt 0.884063 0.050814
vt 0.890367 0.064146
vt 0.918595 0.090576
vt 0.877491 0.051676
vt 0.877491 0.051145
vt 0.878306 0.050716
vt 0.878306 0.050099
vt 0.878037 0.051339
vt 0.878037 0.050814
vt 0.934821 0.051145
vt 0.934821 0.051676
vt 0.935001 0.050099
vt 0.935001 0.050716
vt 0.932265 0.050814
vt 0.932265 0.051339
vn 0.0000 0.1737 -0.9848
vn -0.0000 -0.0000 -1.0000
vn 0.0000 -0.0000 1.0000
vn 0.0000 0.1737 0.9848
vn 0.0000 0.5000 0.8660
vn 0.0000 0.7660 0.6428
vn 0.0000 0.9397 0.3420
vn 0.0000 1.0000 0.0000
vn 0.0000 0.9397 -0.3420
vn 0.0000 0.7660 -0.6428
vn 0.0000 0.5000 -0.8660
vn -0.0000 -0.1737 -0.9848
vn 0.0000 -0.1737 0.9848
vn -0.0000 -0.5000 0.8660
vn -0.0000 -0.7660 0.6428
vn -0.0000 -0.9397 0.3420
vn -0.0000 -1.0000 0.0000
vn -0.0000 -0.9397 -0.3420
vn -0.0000 -0.7660 -0.6428
vn -0.0000 -0.5000 -0.8660
usemtl Material.002
s 1
f 1/1/1 2/2/1 142/3/2 141/4/2
f 140/5/3 139/6/3 3/7/4 4/8/4
f 4/8/5 3/7/5 5/9/5 6/10/5
f 6/10/6 5/9/6 7/11/6 8/12/6
f 8/12/7 7/11/7 9/13/7 10/14/7
f 10/14/8 9/13/8 11/15/8 12/16/8
f 12/16/9 11/15/9 13/17/9 14/18/9
f 14/18/10 13/17/10 15/19/10 16/20/10
f 16/20/11 15/19/11 2/2/11 1/1/11
f 17/21/11 18/22/11 19/23/11 20/24/11
f 18/25/11 21/26/11 22/27/11 19/28/11
f 21/29/11 23/30/11 24/31/11 22/32/11
f 25/33/11 26/34/11 27/35/11 28/36/11
f 26/37/11 16/38/11 1/39/11 27/40/11
f 29/41/10 30/42/10 18/22/10 17/21/10
f 30/43/10 31/44/10 21/26/10 18/25/10
f 31/45/10 32/46/10 23/30/10 21/29/10
f 33/47/10 34/48/10 26/34/10 25/33/10
f 34/49/10 14/50/10 16/38/10 26/37/10
f 35/51/9 36/52/9 30/42/9 29/41/9
f 36/53/9 37/54/9 31/44/9 30/43/9
f 37/55/9 38/56/9 32/46/9 31/45/9
f 39/57/9 40/58/9 34/48/9 33/47/9
f 40/59/9 12/60/9 14/50/9 34/49/9
f 41/61/8 42/62/8 36/52/8 35/51/8
f 42/63/8 43/64/8 37/54/8 36/53/8
f 43/65/8 44/66/8 38/56/8 37/55/8
f 45/67/8 46/68/8 40/58/8 39/57/8
f 46/69/8 10/70/8 12/60/8 40/59/8
f 47/71/7 48/72/7 42/62/7 41/61/7
f 48/73/7 49/74/7 43/64/7 42/63/7
f 49/75/7 50/76/7 44/66/7 43/65/7
f 51/77/7 52/78/7 46/68/7 45/67/7
f 52/79/7 8/80/7 10/70/7 46/69/7
f 53/81/6 54/82/6 48/72/6 47/71/6
f 54/83/6 55/84/6 49/74/6 48/73/6
f 55/85/6 56/86/6 50/76/6 49/75/6
f 57/87/6 58/88/6 52/78/6 51/77/6
f 58/89/6 6/90/6 8/80/6 52/79/6
f 59/91/5 60/92/5 54/82/5 53/81/5
f 60/93/5 61/94/5 55/84/5 54/83/5
f 61/95/5 62/96/5 56/86/5 55/85/5
f 63/97/5 64/98/5 58/88/5 57/87/5
f 64/99/5 4/100/5 6/90/5 58/89/5
f 65/101/3 66/102/3 60/92/4 59/91/4
f 66/103/3 67/104/3 61/94/4 60/93/4
f 67/105/3 68/106/3 62/96/4 61/95/4
f 69/107/3 70/108/3 64/98/4 63/97/4
f 70/109/3 140/110/3 4/100/4 64/99/4
f 20/24/1 19/23/1 71/111/2 72/112/2
f 19/28/1 22/27/1 73/113/2 71/114/2
f 22/32/1 24/31/1 74/115/2 73/116/2
f 28/36/1 27/35/1 143/117/2 144/118/2
f 27/40/1 1/39/1 141/119/2 143/120/2
f 75/121/12 76/122/12 72/123/2 71/124/2
f 66/125/3 65/126/3 77/127/13 78/128/13
f 78/128/14 77/127/14 79/129/14 80/130/14
f 80/130/15 79/129/15 81/131/15 82/132/15
f 82/132/16 81/131/16 83/133/16 84/134/16
f 84/134/17 83/133/17 85/135/17 86/136/17
f 86/136/18 85/135/18 87/137/18 88/138/18
f 88/138/19 87/137/19 89/139/19 90/140/19
f 90/140/20 89/139/20 76/122/20 75/121/20
f 91/141/20 92/142/20 93/143/20 94/144/20
f 92/145/20 95/146/20 96/147/20 93/148/20
f 95/149/20 97/150/20 98/151/20 96/152/20
f 99/153/20 100/154/20 101/155/20 102/156/20
f 100/157/20 90/158/20 75/159/20 101/160/20
f 103/161/19 104/162/19 92/142/19 91/141/19
f 104/163/19 105/164/19 95/146/19 92/145/19
f 105/165/19 106/166/19 97/150/19 95/149/19
f 107/167/19 108/168/19 100/154/19 99/153/19
f 108/169/19 88/170/19 90/158/19 100/157/19
f 109/171/18 110/172/18 104/162/18 103/161/18
f 110/173/18 111/174/18 105/164/18 104/163/18
f 111/175/18 112/176/18 106/166/18 105/165/18
f 113/177/18 114/178/18 108/168/18 107/167/18
f 114/179/18 86/180/18 88/170/18 108/169/18
f 115/181/17 116/182/17 110/172/17 109/171/17
f 116/183/17 117/184/17 111/174/17 110/173/17
f 117/185/17 118/186/17 112/176/17 111/175/17
f 119/187/17 120/188/17 114/178/17 113/177/17
f 120/189/17 84/190/17 86/180/17 114/179/17
f 121/191/16 122/192/16 116/182/16 115/181/16
f 122/193/16 123/194/16 117/184/16 116/183/16
f 123/195/16 124/196/16 118/186/16 117/185/16
f 125/197/16 126/198/16 120/188/16 119/187/16
f 126/199/16 82/200/16 84/190/16 120/189/16
f 127/201/15 128/202/15 122/192/15 121/191/15
f 128/203/15 129/204/15 123/194/15 122/193/15
f 129/205/15 130/206/15 124/196/15 123/195/15
f 131/207/15 132/208/15 126/198/15 125/197/15
f 132/209/15 80/210/15 82/200/15 126/199/15
f 133/211/14 134/212/14 128/202/14 127/201/14
f 134/213/14 135/214/14 129/204/14 128/203/14
f 135/215/14 136/216/14 130/206/14 129/205/14
f 137/217/14 138/218/14 132/208/14 131/207/14
f 138/219/14 78/220/14 80/210/14 132/209/14
f 139/221/3 140/222/3 134/212/13 133/211/13
f 140/110/3 70/109/3 135/214/13 134/213/13
f 70/223/3 69/224/3 136/216/13 135/215/13
f 68/225/3 67/226/3 138/218/13 137/217/13
f 67/104/3 66/103/3 78/220/13 138/219/13
f 94/144/12 93/143/12 141/227/2 142/228/2
f 93/148/12 96/147/12 143/120/2 141/119/2
f 96/152/12 98/151/12 144/229/2 143/230/2
f 102/156/12 101/155/12 73/231/2 74/232/2
f 101/160/12 75/159/12 71/114/2 73/113/2
o 0BACK_Plane.000_0FRONT_Plane.006
v -1.787632 -0.009999 0.000000
v 1.787632 -0.010001 0.000000
v 1.787632 -0.010003 -3.575263
v -1.787632 -0.010002 -3.575263
vt 0.000000 0.112847
vt 0.000000 0.998264
vt 1.000000 0.998264
vt 1.000000 0.112847
vn -0.0000 -1.0000 0.0000
usemtl Material.001_NONE
s 1
f 145/233/21 148/234/21 147/235/21 146/236/21
o 0FRONT_Plane.005
v -1.787632 0.010000 0.000000
v 1.787632 0.010000 0.000000
v 1.787632 0.010003 -3.575263
v -1.787632 0.010003 -3.575263
vt 0.000000 0.112847
vt 1.000000 0.112847
vt 1.000000 0.998264
vt 0.000000 0.998264
vn 0.0000 1.0000 0.0000
usemtl Material.001_NONE
s 1
f 149/237/22 150/238/22 151/239/22 152/240/22
