# Blender v2.79 (sub 0) OBJ File: 'flat.blend'
# www.blender.org
mtllib flat4.mtl
o Cylinder.001
v -0.934216 -0.000000 0.000000
v 0.934216 0.000000 0.000000
v -0.934216 -0.000000 0.205234
v 0.934216 0.000000 0.205234
v -0.934216 0.035097 0.199045
v 0.934216 0.035097 0.199045
v -0.934216 0.065961 0.181226
v 0.934216 0.065961 0.181226
v -0.934216 0.088869 0.153925
v 0.934216 0.088869 0.153925
v -0.934216 0.101058 0.120436
v 0.934216 0.101058 0.120436
v -0.934216 0.101058 0.084798
v 0.934216 0.101058 0.084798
v -0.934216 0.088869 0.051309
v 0.934216 0.088869 0.051309
v -0.934216 0.065961 0.024008
v 0.934216 0.065961 0.024008
v -0.934216 0.035097 0.006189
v 0.934216 0.035097 0.006189
v -0.925297 -0.000000 0.000000
v -0.062511 0.000000 0.000000
v -0.052019 0.000000 0.000000
v 0.052019 0.000000 0.000000
v 0.062511 0.000000 0.000000
v 0.925297 0.000000 0.000000
v -0.925297 0.035097 0.006189
v -0.062511 0.035097 0.006189
v -0.052019 0.035097 0.006189
v 0.052019 0.035097 0.006189
v 0.062511 0.035097 0.006189
v 0.925297 0.035097 0.006189
v 0.925297 0.000000 0.205234
v 0.062511 -0.000000 0.205234
v 0.052019 -0.000000 0.205234
v -0.052019 -0.000000 0.205234
v -0.062511 -0.000000 0.205234
v -0.925297 -0.000000 0.205234
v 0.925297 0.035097 0.199045
v 0.062511 0.035097 0.199045
v 0.052019 0.035097 0.199045
v -0.052019 0.035097 0.199045
v -0.062511 0.035097 0.199045
v -0.925297 0.035097 0.199045
v 0.925297 0.065961 0.181226
v 0.062511 0.065961 0.181226
v 0.052019 0.065961 0.181226
v -0.052019 0.065961 0.181226
v -0.062511 0.065961 0.181226
v -0.925297 0.065961 0.181226
v 0.925297 0.088869 0.153925
v 0.062511 0.088869 0.153925
v 0.052019 0.088869 0.153925
v -0.052019 0.088869 0.153925
v -0.062511 0.088869 0.153925
v -0.925297 0.088869 0.153925
v 0.925297 0.101058 0.120436
v 0.062511 0.101058 0.120436
v 0.052019 0.101058 0.120436
v -0.052019 0.101058 0.120436
v -0.062511 0.101058 0.120436
v -0.925297 0.101058 0.120436
v 0.925297 0.101058 0.084798
v 0.062511 0.101058 0.084798
v 0.052019 0.101058 0.084798
v -0.052019 0.101058 0.084798
v -0.062511 0.101058 0.084798
v -0.925297 0.101058 0.084798
v 0.925297 0.088869 0.051309
v 0.062511 0.088869 0.051309
v 0.052019 0.088869 0.051309
v -0.052019 0.088869 0.051309
v -0.062511 0.088869 0.051309
v -0.925297 0.088869 0.051309
v 0.925297 0.065961 0.024008
v 0.062511 0.065961 0.024008
v 0.052019 0.065961 0.024008
v -0.052019 0.065961 0.024008
v -0.062511 0.065961 0.024008
v -0.925297 0.065961 0.024008
vt 0.927431 0.050000
vt 0.927431 0.049541
vt 0.933621 0.049541
vt 0.933621 0.050000
vt 0.877907 0.050000
vt 0.877907 0.049541
vt 0.884097 0.049541
vt 0.884097 0.050000
vt 0.890288 0.049541
vt 0.890288 0.050000
vt 0.896478 0.049541
vt 0.896478 0.050000
vt 0.902669 0.049541
vt 0.902669 0.050000
vt 0.908859 0.049541
vt 0.908859 0.050000
vt 0.915050 0.049541
vt 0.915050 0.050000
vt 0.921240 0.049541
vt 0.921240 0.050000
vt 0.922081 0.051676
vt 0.922081 0.051145
vt 0.928451 0.051145
vt 0.928451 0.051676
vt 0.891974 0.058718
vt 0.891974 0.106947
vt 0.885993 0.106947
vt 0.885993 0.058718
vt 0.922402 0.050716
vt 0.922402 0.050099
vt 0.928702 0.050099
vt 0.928702 0.050716
vt 0.920215 0.051339
vt 0.920215 0.050814
vt 0.926240 0.050814
vt 0.926240 0.051339
vt 0.877186 0.097874
vt 0.936168 0.097874
vt 0.936168 0.103711
vt 0.877186 0.103711
vt 0.915711 0.051676
vt 0.915711 0.051145
vt 0.897955 0.058718
vt 0.897955 0.106947
vt 0.916103 0.050716
vt 0.916103 0.050099
vt 0.914189 0.051339
vt 0.914189 0.050814
vt 0.877186 0.092038
vt 0.936168 0.092038
vt 0.909341 0.051676
vt 0.909341 0.051145
vt 0.903936 0.058718
vt 0.903936 0.106947
vt 0.909804 0.050716
vt 0.909804 0.050099
vt 0.908164 0.051339
vt 0.908164 0.050814
vt 0.877186 0.086202
vt 0.936168 0.086202
vt 0.902971 0.051676
vt 0.902971 0.051145
vt 0.909917 0.058718
vt 0.909917 0.106947
vt 0.903504 0.050716
vt 0.903504 0.050099
vt 0.902138 0.051339
vt 0.902138 0.050814
vt 0.877186 0.080365
vt 0.936168 0.080365
vt 0.896601 0.051676
vt 0.896601 0.051145
vt 0.915898 0.058718
vt 0.915898 0.106947
vt 0.897205 0.050716
vt 0.897205 0.050099
vt 0.896113 0.051339
vt 0.896113 0.050814
vt 0.877186 0.074529
vt 0.936168 0.074529
vt 0.890231 0.051676
vt 0.890231 0.051145
vt 0.921879 0.058718
vt 0.921879 0.106947
vt 0.890905 0.050716
vt 0.890905 0.050099
vt 0.890088 0.051339
vt 0.890088 0.050814
vt 0.877186 0.068692
vt 0.936168 0.068692
vt 0.883861 0.051676
vt 0.883861 0.051145
vt 0.927860 0.058718
vt 0.927860 0.106947
vt 0.884606 0.050716
vt 0.884606 0.050099
vt 0.884063 0.051339
vt 0.884063 0.050814
vt 0.877186 0.062856
vt 0.936168 0.062856
vt 0.877491 0.051676
vt 0.877491 0.051145
vt 0.933841 0.058718
vt 0.933841 0.106947
vt 0.878306 0.050716
vt 0.878306 0.050099
vt 0.878037 0.051339
vt 0.878037 0.050814
vt 0.877186 0.057019
vt 0.936168 0.057020
vt 0.934821 0.051145
vt 0.934821 0.051676
vt 0.880012 0.106947
vt 0.880012 0.058718
vt 0.935001 0.050099
vt 0.935001 0.050716
vt 0.932265 0.050814
vt 0.932265 0.051339
vt 0.936168 0.109547
vt 0.877186 0.109547
vn -0.0000 0.1736 -0.9848
vn 0.0000 0.1736 0.9848
vn -0.0000 0.5000 0.8660
vn -0.0000 0.7660 0.6428
vn -0.0000 0.9397 0.3420
vn -0.0000 1.0000 0.0000
vn -0.0000 0.9397 -0.3420
vn -0.0000 0.7660 -0.6428
vn -0.0000 0.5000 -0.8660
usemtl Material.001
s off
f 32/1/1 20/2/1 2/3/1 26/4/1
f 33/5/2 4/6/2 6/7/2 39/8/2
f 39/8/3 6/7/3 8/9/3 45/10/3
f 45/10/4 8/9/4 10/11/4 51/12/4
f 51/12/5 10/11/5 12/13/5 57/14/5
f 57/14/6 12/13/6 14/15/6 63/16/6
f 63/16/7 14/15/7 16/17/7 69/18/7
f 69/18/8 16/17/8 18/19/8 75/20/8
f 75/20/9 18/19/9 20/2/9 32/1/9
f 17/21/9 80/22/9 27/23/9 19/24/9
f 80/25/9 79/26/9 28/27/9 27/28/9
f 79/29/9 78/30/9 29/31/9 28/32/9
f 77/33/9 76/34/9 31/35/9 30/36/9
f 76/37/9 75/38/9 32/39/9 31/40/9
f 15/41/8 74/42/8 80/22/8 17/21/8
f 74/43/8 73/44/8 79/26/8 80/25/8
f 73/45/8 72/46/8 78/30/8 79/29/8
f 71/47/8 70/48/8 76/34/8 77/33/8
f 70/49/8 69/50/8 75/38/8 76/37/8
f 13/51/7 68/52/7 74/42/7 15/41/7
f 68/53/7 67/54/7 73/44/7 74/43/7
f 67/55/7 66/56/7 72/46/7 73/45/7
f 65/57/7 64/58/7 70/48/7 71/47/7
f 64/59/7 63/60/7 69/50/7 70/49/7
f 11/61/6 62/62/6 68/52/6 13/51/6
f 62/63/6 61/64/6 67/54/6 68/53/6
f 61/65/6 60/66/6 66/56/6 67/55/6
f 59/67/6 58/68/6 64/58/6 65/57/6
f 58/69/6 57/70/6 63/60/6 64/59/6
f 9/71/5 56/72/5 62/62/5 11/61/5
f 56/73/5 55/74/5 61/64/5 62/63/5
f 55/75/5 54/76/5 60/66/5 61/65/5
f 53/77/5 52/78/5 58/68/5 59/67/5
f 52/79/5 51/80/5 57/70/5 58/69/5
f 7/81/4 50/82/4 56/72/4 9/71/4
f 50/83/4 49/84/4 55/74/4 56/73/4
f 49/85/4 48/86/4 54/76/4 55/75/4
f 47/87/4 46/88/4 52/78/4 53/77/4
f 46/89/4 45/90/4 51/80/4 52/79/4
f 5/91/3 44/92/3 50/82/3 7/81/3
f 44/93/3 43/94/3 49/84/3 50/83/3
f 43/95/3 42/96/3 48/86/3 49/85/3
f 41/97/3 40/98/3 46/88/3 47/87/3
f 40/99/3 39/100/3 45/90/3 46/89/3
f 3/101/2 38/102/2 44/92/2 5/91/2
f 38/103/2 37/104/2 43/94/2 44/93/2
f 37/105/2 36/106/2 42/96/2 43/95/2
f 35/107/2 34/108/2 40/98/2 41/97/2
f 34/109/2 33/110/2 39/100/2 40/99/2
f 19/24/1 27/23/1 21/111/1 1/112/1
f 27/28/1 28/27/1 22/113/1 21/114/1
f 28/32/1 29/31/1 23/115/1 22/116/1
f 30/36/1 31/35/1 25/117/1 24/118/1
f 31/40/1 32/39/1 26/119/1 25/120/1
o Cylinder
v -1.001994 -0.000000 0.022924
v -0.934216 -0.000000 0.000000
v -0.982142 -0.000000 0.006714
v 1.001994 0.000000 0.022924
v 0.934216 0.000000 0.000000
v 0.982142 0.000000 0.006714
v -1.001994 -0.000000 0.182310
v -0.934216 -0.000000 0.205234
v -0.982142 -0.000000 0.198520
v 1.001994 0.000000 0.182310
v 0.934216 0.000000 0.205234
v 0.982142 0.000000 0.198520
v -1.001994 0.027257 0.177504
v -0.934216 0.035097 0.199045
v -0.982142 0.032801 0.192736
v 1.001994 0.027257 0.177504
v 0.934216 0.035097 0.199045
v 0.982142 0.032801 0.192736
v -1.001994 0.051226 0.163665
v -0.934216 0.065961 0.181226
v -0.982142 0.061645 0.176083
v 1.001994 0.051226 0.163665
v 0.934216 0.065961 0.181226
v 0.982142 0.061645 0.176083
v -1.001994 0.069016 0.142463
v -0.934216 0.088869 0.153925
v -0.982142 0.083054 0.150568
v 1.001994 0.069016 0.142463
v 0.934216 0.088869 0.153925
v 0.982142 0.083054 0.150568
v -1.001994 0.078482 0.116456
v -0.934216 0.101058 0.120436
v -0.982142 0.094446 0.119270
v 1.001994 0.078482 0.116456
v 0.934216 0.101058 0.120436
v 0.982142 0.094446 0.119270
v -1.001994 0.078482 0.088778
v -0.934216 0.101058 0.084798
v -0.982142 0.094446 0.085964
v 1.001994 0.078482 0.088778
v 0.934216 0.101058 0.084798
v 0.982142 0.094446 0.085964
v -1.001994 0.069016 0.062770
v -0.934216 0.088869 0.051309
v -0.982142 0.083054 0.054666
v 1.001994 0.069016 0.062770
v 0.934216 0.088869 0.051309
v 0.982142 0.083054 0.054666
v -1.001994 0.051226 0.041568
v -0.934216 0.065961 0.024008
v -0.982142 0.061645 0.029151
v 1.001994 0.051226 0.041568
v 0.934216 0.065961 0.024008
v 0.982142 0.061645 0.029151
v -1.001994 0.027257 0.027730
v -0.934216 0.035097 0.006189
v -0.982142 0.032801 0.012498
v 1.001994 0.027257 0.027730
v 0.934216 0.035097 0.006189
v 0.982142 0.032801 0.012498
v -0.062511 0.000000 0.000000
v -0.052019 0.000000 0.000000
v 0.052019 0.000000 0.000000
v 0.062511 0.000000 0.000000
v -0.052019 0.035097 0.006189
v 0.052019 0.035097 0.006189
v 0.062511 -0.000000 0.205234
v 0.052019 -0.000000 0.205234
v -0.052019 -0.000000 0.205234
v -0.062511 -0.000000 0.205234
v 0.052019 0.035097 0.199045
v -0.052019 0.035097 0.199045
v 0.052019 0.065961 0.181226
v -0.052019 0.065961 0.181226
v 0.052019 0.088869 0.153925
v -0.052019 0.088869 0.153925
v 0.052019 0.101058 0.120436
v -0.052019 0.101058 0.120436
v 0.052019 0.101058 0.084798
v -0.052019 0.101058 0.084798
v 0.052019 0.088869 0.051309
v -0.052019 0.088869 0.051309
v 0.052019 0.065961 0.024008
v -0.052019 0.065961 0.024008
vt 0.986408 0.013103
vt 0.951903 0.012823
vt 0.952847 0.006787
vt 0.986065 0.007365
vt 0.945662 0.107314
vt 0.942994 0.096878
vt 0.947952 0.097032
vt 0.949071 0.104232
vt 0.951931 0.097417
vt 0.952254 0.102834
vt 0.941950 0.013359
vt 0.945128 0.001114
vt 0.949583 0.005288
vt 0.947390 0.013057
vt 0.946909 0.086978
vt 0.950903 0.089577
vt 0.954367 0.091936
vt 0.946078 0.024123
vt 0.950313 0.021239
vt 0.954056 0.018773
vt 0.954413 0.080196
vt 0.956900 0.084112
vt 0.959141 0.087737
vt 0.954023 0.031359
vt 0.956551 0.027136
vt 0.958899 0.023307
vt 0.963624 0.076813
vt 0.964501 0.081300
vt 0.965282 0.085499
vt 0.963763 0.034935
vt 0.964555 0.030159
vt 0.965342 0.025709
vt 0.973326 0.076813
vt 0.972577 0.081319
vt 0.971837 0.085514
vt 0.974041 0.034935
vt 0.973110 0.030184
vt 0.972282 0.025742
vt 0.982514 0.080199
vt 0.980125 0.084182
vt 0.977902 0.087793
vt 0.983790 0.031344
vt 0.981152 0.027199
vt 0.978775 0.023362
vt 0.990004 0.087033
vt 0.986005 0.089751
vt 0.982471 0.092076
vt 0.991733 0.024158
vt 0.987501 0.021408
vt 0.983831 0.018911
vt 0.993894 0.097192
vt 0.988760 0.097474
vt 0.984500 0.097693
vt 0.995876 0.013670
vt 0.990624 0.013509
vt 0.990890 0.108747
vt 0.986687 0.104806
vt 0.983607 0.103390
vt 0.993046 0.002616
vt 0.989436 0.005882
vt 0.985626 0.066858
vt 0.985626 0.060384
vt 0.992284 0.060384
vt 0.992284 0.066858
vt 0.978967 0.066858
vt 0.978967 0.060384
vt 0.972309 0.066858
vt 0.972309 0.060384
vt 0.965651 0.066858
vt 0.965651 0.060384
vt 0.958993 0.066858
vt 0.958993 0.060384
vt 0.952334 0.066858
vt 0.952334 0.060384
vt 0.945676 0.066858
vt 0.945676 0.060384
vt 0.939018 0.066858
vt 0.939018 0.060384
vt 0.998942 0.060384
vt 0.998942 0.066858
vt 0.915521 0.061009
vt 0.915521 0.107692
vt 0.898201 0.107692
vt 0.898201 0.061009
vn 1.0000 0.0000 0.0000
vn -0.1367 0.1720 0.9756
vn -0.6267 0.1353 0.7675
vn 0.1367 0.1720 0.9756
vn 0.6267 0.1353 0.7675
vn -0.1367 0.4953 0.8579
vn -0.6267 0.3897 0.6749
vn 0.1367 0.4953 0.8579
vn 0.6267 0.3897 0.6749
vn -0.1367 0.7589 0.6368
vn -0.6267 0.5970 0.5009
vn 0.1367 0.7589 0.6368
vn 0.6267 0.5970 0.5009
vn -0.1367 0.9309 0.3388
vn -0.6267 0.7323 0.2665
vn 0.1367 0.9309 0.3388
vn 0.6267 0.7323 0.2665
vn -0.1367 0.9906 0.0000
vn -0.6267 0.7793 0.0000
vn 0.1367 0.9906 0.0000
vn 0.6267 0.7793 0.0000
vn -0.1367 0.9309 -0.3388
vn -0.6267 0.7323 -0.2665
vn 0.1367 0.9309 -0.3388
vn 0.6267 0.7323 -0.2665
vn -0.1367 0.7589 -0.6368
vn -0.6267 0.5970 -0.5009
vn 0.1367 0.7589 -0.6368
vn 0.6267 0.5970 -0.5009
vn -0.1367 0.4953 -0.8579
vn -0.6267 0.3896 -0.6749
vn 0.1367 0.4953 -0.8579
vn 0.6267 0.3896 -0.6749
vn -0.1367 0.1720 -0.9756
vn -0.6267 0.1353 -0.7675
vn 0.1367 0.1720 -0.9756
vn 0.6267 0.1353 -0.7675
vn -0.0000 0.5000 -0.8660
vn -0.0000 0.7660 -0.6428
vn -0.0000 0.9397 -0.3420
vn -0.0000 1.0000 0.0000
vn 0.0000 0.9397 0.3420
vn 0.0000 0.7660 0.6428
vn -0.0000 0.5000 0.8660
vn -0.0000 0.1736 0.9848
vn -0.0000 0.1736 -0.9848
vn -1.0000 -0.0000 0.0000
vn 0.0000 -1.0000 -0.0000
usemtl Material.001
s off
f 138/121/10 96/122/10 90/123/10 84/124/10
f 88/125/11 94/126/11 95/127/11 89/128/11
f 89/128/12 95/127/12 93/129/12 87/130/12
f 97/131/13 91/132/13 92/133/13 98/134/13
f 98/134/14 92/133/14 90/123/14 96/122/14
f 94/126/15 100/135/15 101/136/15 95/127/15
f 95/127/16 101/136/16 99/137/16 93/129/16
f 103/138/17 97/131/17 98/134/17 104/139/17
f 104/139/18 98/134/18 96/122/18 102/140/18
f 100/135/19 106/141/19 107/142/19 101/136/19
f 101/136/20 107/142/20 105/143/20 99/137/20
f 109/144/21 103/138/21 104/139/21 110/145/21
f 110/145/22 104/139/22 102/140/22 108/146/22
f 106/141/23 112/147/23 113/148/23 107/142/23
f 107/142/24 113/148/24 111/149/24 105/143/24
f 115/150/25 109/144/25 110/145/25 116/151/25
f 116/151/26 110/145/26 108/146/26 114/152/26
f 112/147/27 118/153/27 119/154/27 113/148/27
f 113/148/28 119/154/28 117/155/28 111/149/28
f 121/156/29 115/150/29 116/151/29 122/157/29
f 122/157/30 116/151/30 114/152/30 120/158/30
f 118/153/31 124/159/31 125/160/31 119/154/31
f 119/154/32 125/160/32 123/161/32 117/155/32
f 127/162/33 121/156/33 122/157/33 128/163/33
f 128/163/34 122/157/34 120/158/34 126/164/34
f 124/159/35 130/165/35 131/166/35 125/160/35
f 125/160/36 131/166/36 129/167/36 123/161/36
f 133/168/37 127/162/37 128/163/37 134/169/37
f 134/169/38 128/163/38 126/164/38 132/170/38
f 130/165/39 136/171/39 137/172/39 131/166/39
f 131/166/40 137/172/40 135/173/40 129/167/40
f 139/174/41 133/168/41 134/169/41 140/175/41
f 140/175/42 134/169/42 132/170/42 138/121/42
f 136/171/43 82/176/43 83/177/43 137/172/43
f 137/172/44 83/177/44 81/178/44 135/173/44
f 85/179/45 139/174/45 140/175/45 86/180/45
f 86/180/46 140/175/46 138/121/46 84/124/46
f 164/181/47 163/182/47 146/183/47 145/184/47
f 162/185/48 161/186/48 163/182/48 164/181/48
f 160/187/49 159/188/49 161/186/49 162/185/49
f 158/189/50 157/190/50 159/188/50 160/187/50
f 156/191/51 155/192/51 157/190/51 158/189/51
f 154/193/52 153/194/52 155/192/52 156/191/52
f 152/195/53 151/196/53 153/194/53 154/193/53
f 149/197/54 148/198/54 151/196/54 152/195/54
f 145/184/55 146/183/55 143/199/55 142/200/55
f 93/129/56 135/173/56 81/178/56 87/130/56
f 99/137/56 129/167/56 135/173/56 93/129/56
f 105/143/56 123/161/56 129/167/56 99/137/56
f 111/149/56 117/155/56 123/161/56 105/143/56
f 132/170/10 102/140/10 96/122/10 138/121/10
f 126/164/10 108/146/10 102/140/10 132/170/10
f 126/164/10 120/158/10 114/152/10 108/146/10
f 85/179/57 86/180/57 92/133/57 91/132/57
f 86/180/57 84/124/57 90/123/57 92/133/57
f 82/201/57 85/202/57 91/203/57 88/204/57
f 83/177/57 82/176/57 88/125/57 89/128/57
f 81/178/57 83/177/57 89/128/57 87/130/57
l 141 144
l 150 147
o 0FRONT_Plane.002
v -1.787632 0.010000 0.000000
v -1.787632 0.010002 -3.575263
v 1.787632 0.010000 0.000000
v 1.787632 0.010002 -3.575263
vt 0.000000 0.112847
vt 1.000000 0.112847
vt 1.000000 0.998264
vt 0.000000 0.998264
vn 0.0000 1.0000 0.0000
usemtl Material.001_NONE
s off
f 165/205/58 167/206/58 168/207/58 166/208/58
o 0BASE_ICON_Cylinder.000
v 1.001993 0.025203 -0.173794
v 1.001994 0.025203 0.379211
v 1.555000 0.025203 0.379211
v 1.554999 0.025203 -0.173794
vt 0.001953 0.109375
vt 0.001953 0.001736
vt 0.123047 0.001736
vt 0.123047 0.109375
vn 0.0000 1.0000 0.0000
usemtl Material.001_NONE
s off
f 169/209/59 170/210/59 171/211/59 172/212/59
