# Blender v2.79 (sub 0) OBJ File: 'flat.blend'
# www.blender.org
mtllib flat2.mtl
o Cube.001_Cube.005
v -0.059642 0.000001 0.000000
v -0.894637 0.000001 0.000000
v -0.894637 0.100001 0.000000
v -0.059642 0.100001 0.000000
v -0.894637 0.000001 0.160000
v -0.059642 0.000001 0.160000
v -0.059642 0.100001 0.160000
v -0.894637 0.100001 0.160000
v 0.894637 0.000001 0.000000
v 0.059642 0.000001 0.000000
v 0.059642 0.100001 0.000000
v 0.894637 0.100001 0.000000
v 0.059642 0.000001 0.160000
v 0.894637 0.000001 0.160000
v 0.894637 0.100001 0.160000
v 0.059642 0.100001 0.160000
vt 0.879257 0.078678
vt 0.879257 0.058905
vt 0.935262 0.058905
vt 0.935262 0.078678
vt 0.935262 0.058905
vt 0.935262 0.078678
vt 0.879257 0.078678
vt 0.879257 0.058905
vt 0.935261 0.058908
vt 0.935261 0.107350
vt 0.879258 0.107350
vt 0.935261 0.107350
vt 0.879258 0.107350
vt 0.879258 0.058908
vt 0.879257 0.078678
vt 0.879257 0.058905
vt 0.935262 0.058905
vt 0.935262 0.078678
vt 0.935262 0.058905
vt 0.935262 0.078678
vt 0.879257 0.078678
vt 0.879257 0.058905
vt 0.935261 0.058908
vt 0.935261 0.107350
vt 0.879258 0.107350
vt 0.935261 0.107350
vt 0.879258 0.107350
vt 0.879258 0.058908
vn 0.0000 0.0000 -1.0000
vn 0.0000 0.0000 1.0000
vn 0.0000 -1.0000 0.0000
vn 0.0000 1.0000 0.0000
usemtl Material.001
s off
f 2/1/1 3/2/1 4/3/1 1/4/1
f 6/5/2 7/6/2 8/7/2 5/8/2
f 2/9/3 1/10/3 6/11/3 5/8/3
f 4/3/4 3/12/4 8/13/4 7/14/4
f 10/15/1 11/16/1 12/17/1 9/18/1
f 14/19/2 15/20/2 16/21/2 13/22/2
f 10/23/3 9/24/3 14/25/3 13/22/3
f 12/17/4 11/26/4 16/27/4 15/28/4
o Cube_Cube.001
v -1.001993 0.000001 0.160000
v -1.001993 0.100001 0.160000
v -1.001993 0.000001 0.000000
v -1.001993 0.100001 0.000000
v 1.001993 0.000001 0.160000
v 1.001993 0.100001 0.160000
v 1.001993 0.000001 0.000000
v 1.001993 0.100001 0.000000
v 0.906565 0.000001 0.000000
v 0.047714 0.000001 0.000000
v -0.047714 0.000001 0.000000
v -0.906565 0.000001 0.000000
v -0.906565 0.100001 0.000000
v -0.047714 0.100001 0.000000
v 0.047714 0.100001 0.000000
v 0.906565 0.100001 0.000000
v -0.906565 0.000001 0.160000
v -0.047714 0.000001 0.160000
v 0.047714 0.000001 0.160000
v 0.906565 0.000001 0.160000
v 0.906565 0.100001 0.160000
v 0.047714 0.100001 0.160000
v -0.047714 0.100001 0.160000
v -0.906565 0.100001 0.160000
v -0.059642 0.000001 0.000000
v -0.894637 0.000001 0.000000
v -0.894637 0.100001 0.000000
v -0.059642 0.100001 0.000000
v -0.894637 0.000001 0.160000
v -0.059642 0.000001 0.160000
v -0.059642 0.100001 0.160000
v -0.894637 0.100001 0.160000
v 0.894637 0.000001 0.000000
v 0.059642 0.000001 0.000000
v 0.059642 0.100001 0.000000
v 0.894637 0.100001 0.000000
v 0.059642 0.000001 0.160000
v 0.894637 0.000001 0.160000
v 0.894637 0.100001 0.160000
v 0.059642 0.100001 0.160000
vt 0.950211 0.079641
vt 0.975043 0.079641
vt 0.975043 0.104473
vt 0.950211 0.104473
vt 0.975943 0.001114
vt 0.975943 0.034239
vt 0.946131 0.034239
vt 0.946131 0.001114
vt 0.988510 0.001876
vt 0.988510 0.032192
vt 0.948990 0.032192
vt 0.948990 0.001877
vt 0.950211 0.079641
vt 0.975043 0.079641
vt 0.975043 0.104473
vt 0.950211 0.104473
vt 0.991562 0.002247
vt 0.991562 0.026401
vt 0.943984 0.026401
vt 0.943984 0.002248
vt 0.950211 0.079641
vt 0.975043 0.079641
vt 0.950211 0.104473
vt 0.976940 0.002782
vt 0.976940 0.032810
vt 0.946888 0.032810
vt 0.946888 0.002783
vt 0.881011 0.008285
vt 0.881022 0.042245
vt 0.932277 0.042245
vt 0.932266 0.008285
vt 0.981010 0.040887
vt 0.981010 0.068834
vt 0.954223 0.068834
vt 0.954223 0.040888
vt 0.929743 0.011960
vt 0.929733 0.019482
vt 0.882560 0.019482
vt 0.882570 0.011960
vt 0.950211 0.079641
vt 0.975043 0.079641
vt 0.975043 0.104473
vt 0.881011 0.008285
vt 0.881022 0.042245
vt 0.932277 0.042245
vt 0.932266 0.008285
vt 0.984966 0.043255
vt 0.984966 0.066708
vt 0.945210 0.066708
vt 0.945210 0.043255
vt 0.929743 0.034673
vt 0.929733 0.042196
vt 0.882560 0.042196
vt 0.882570 0.034673
vt 0.973662 0.002560
vt 0.973662 0.032873
vt 0.946380 0.032873
vt 0.946380 0.002560
vt 0.911273 0.004733
vt 0.911273 0.049100
vt 0.906282 0.049100
vt 0.906282 0.004733
vt 0.974662 0.041600
vt 0.974662 0.068090
vt 0.950821 0.068090
vt 0.950821 0.041600
vt 0.906258 0.004733
vt 0.906258 0.049100
vt 0.901267 0.049100
vt 0.901267 0.004733
vt 0.975043 0.104473
vt 0.950211 0.104473
vt 0.926318 0.004733
vt 0.926318 0.049100
vt 0.921327 0.049100
vt 0.921327 0.004733
vt 0.969612 0.040665
vt 0.969612 0.070315
vt 0.942927 0.070315
vt 0.942927 0.040665
vt 0.891213 0.004733
vt 0.891213 0.049100
vt 0.886222 0.049100
vt 0.886222 0.004733
vt 0.921303 0.004733
vt 0.921303 0.049100
vt 0.916312 0.049100
vt 0.916312 0.004733
vt 0.916288 0.004733
vt 0.916288 0.049100
vt 0.911297 0.049100
vt 0.911297 0.004733
vt 0.929743 0.027102
vt 0.929733 0.034625
vt 0.882560 0.034625
vt 0.882570 0.027102
vt 0.881011 0.008285
vt 0.881022 0.042245
vt 0.932277 0.042245
vt 0.932266 0.008285
vt 0.896228 0.004733
vt 0.896228 0.049100
vt 0.891237 0.049100
vt 0.891237 0.004733
vt 0.901243 0.004733
vt 0.901243 0.049100
vt 0.896252 0.049100
vt 0.896252 0.004733
vt 0.881011 0.008285
vt 0.881022 0.042245
vt 0.932277 0.042245
vt 0.932266 0.008285
vt 0.929743 0.019531
vt 0.929733 0.027053
vt 0.882560 0.027053
vt 0.882570 0.019531
vn -1.0000 0.0000 0.0000
vn 0.0000 0.0000 -1.0000
vn 1.0000 0.0000 0.0000
vn 0.0000 0.0000 1.0000
vn 0.0000 -1.0000 0.0000
vn 0.0000 1.0000 0.0000
usemtl Material.001
s off
f 17/29/5 18/30/5 20/31/5 19/32/5
f 25/33/6 32/34/6 24/35/6 23/36/6
f 23/37/7 24/38/7 22/39/7 21/40/7
f 33/41/8 40/42/8 18/43/8 17/44/8
f 25/45/9 23/46/9 21/47/9 36/48/9
f 29/49/10 20/50/10 18/43/10 40/51/10
f 24/52/10 32/53/10 37/54/10 22/55/10
f 51/56/10 31/57/10 38/58/10 56/59/10
f 31/60/10 30/61/10 39/62/10 38/63/10
f 43/64/10 29/65/10 40/66/10 48/67/10
f 19/68/9 28/69/9 33/70/9 17/44/9
f 41/71/9 27/72/9 34/73/9 46/74/9
f 27/75/9 26/76/9 35/77/9 34/78/9
f 49/79/9 25/80/9 36/81/9 54/82/9
f 21/83/8 22/84/8 37/85/8 36/86/8
f 53/87/8 56/88/8 38/89/8 35/90/8
f 35/91/8 38/92/8 39/93/8 34/94/8
f 45/95/8 48/96/8 40/97/8 33/98/8
f 19/68/6 20/50/6 29/99/6 28/100/6
f 41/101/6 44/102/6 30/103/6 27/104/6
f 27/105/6 30/106/6 31/107/6 26/108/6
f 49/109/6 52/110/6 32/111/6 25/112/6
f 28/113/6 29/114/6 43/115/6 42/116/6
f 34/117/8 39/118/8 47/119/8 46/120/8
f 28/121/9 42/122/9 45/123/9 33/124/9
f 30/125/10 44/126/10 47/127/10 39/128/10
f 26/129/6 31/130/6 51/131/6 50/132/6
f 36/133/8 37/134/8 55/135/8 54/136/8
f 26/137/9 50/138/9 53/139/9 35/140/9
f 32/141/10 52/142/10 55/143/10 37/144/10
o 0FRONT_Plane.002
v -1.787632 0.010000 0.000000
v -1.787632 0.010002 -3.575263
v 1.787632 0.010000 0.000000
v 1.787632 0.010002 -3.575263
vt 0.000000 0.112847
vt 1.000000 0.112847
vt 1.000000 0.998264
vt 0.000000 0.998264
vn 0.0000 1.0000 0.0000
usemtl Material.001_NONE
s off
f 57/145/11 59/146/11 60/147/11 58/148/11
o 0BASE_ICON_Cylinder.000
v 1.001993 0.025203 -0.197734
v 1.001994 0.025203 0.355271
v 1.555000 0.025203 0.355271
v 1.554999 0.025203 -0.197734
vt 0.001953 0.109375
vt 0.001953 0.001736
vt 0.123047 0.001736
vt 0.123047 0.109375
vn 0.0000 1.0000 0.0000
usemtl Material.001_NONE
s off
f 61/149/12 62/150/12 63/151/12 64/152/12
